<?xml version="1.0" encoding="UTF-8" standalone="no"?>
<svg xmlns="http://www.w3.org/2000/svg" xmlns:xlink="http://www.w3.org/1999/xlink" width="124.820mm" height="90.470mm" viewBox="30.193779 -119.230759 124.820290 90.470215">
    <rect transform="matrix(1,0,0,-1,92.60392,-73.995651)" style="stroke:#000000;stroke-width:0.05mm;fill:none" x="-62.410141" y="-45.235104" width="124.820282" height="90.470207"/>
    <path transform="matrix(1,0,0,-1,-196.003174,24.737114)" style="stroke:#000000;stroke-width:0.05mm;fill:none" d="M334.760498,139L333.760498,139L333.760498,69.5L233.760498,69.5L233.760498,68.5L334.760498,68.5L334.760498,139z"/>
    <path transform="matrix(1,0,0,-1,0,0)" style="stroke:#000000;stroke-width:0.05mm;fill:none" d="M45.24707,70.763184L64.5,70.763184L64.5,61.15332L65.5,61.15332L65.5,70.763184L89.5,70.763184L89.5,61.15332L90.5,61.15332L90.5,70.763184L105.866699,70.763184L105.866699,61.15332L106.866699,61.15332L106.866699,70.763184L125.74707,70.763184L125.74707,71.763184L45.24707,71.763184L45.24707,81.763184L125.74707,81.763184L125.74707,82.763184L45.24707,82.763184L45.24707,92.763184L125.74707,92.763184L125.74707,93.763184L44.24707,93.763184L44.24707,61.15332L45.24707,61.15332L45.24707,70.763184z"/>
    <path transform="matrix(1,0,0,-1,0,0)" style="stroke:none;fill:#0000ff;fill-rule:evenodd" d="M119.432617,63.662415C119.88517,63.711117,120.256897,64.042213,120.357422,64.486145L119.90332,64.542297L119.848633,64.412415C119.771553,64.243668,119.630775,64.112183,119.456955,64.047348C119.283142,63.982506,119.090637,63.98967,118.921875,64.066711C118.671455,64.181999,118.497292,64.417099,118.459961,64.690247L118.436035,64.891418L120.369629,64.891418C120.395012,65.208656,120.331619,65.526627,120.186523,65.809875C119.98127,66.161423,119.599731,66.372162,119.192871,66.358704C118.575775,66.374504,118.053474,65.905571,118.00293,65.290344C117.935669,64.915794,117.994209,64.52951,118.169434,64.191711C118.393478,63.833023,118.795044,63.624943,119.217285,63.648743L119.432617,63.662415zM118.460449,65.252747L118.48291,65.413879C118.547157,65.756493,118.849213,66.003052,119.197754,65.997375C119.544312,66.004128,119.840828,65.749634,119.886719,65.406067L119.908203,65.252747L118.460449,65.252747z"/>
    <path transform="matrix(1,0,0,-1,0,0)" style="stroke:none;fill:#0000ff;fill-rule:evenodd" d="M116.510742,62.664368C117.005371,62.670837,117.416588,63.0494,117.463867,63.541809C117.486519,63.713215,117.496964,63.886013,117.495117,64.058899L117.495117,66.30011L117.089844,66.30011L117.089844,65.98761L116.930664,66.150208C116.488441,66.486877,115.859352,66.412155,115.508301,65.981262C115.10833,65.415642,115.106186,64.660965,115.50293,64.093079C115.794067,63.725872,116.296265,63.60223,116.724609,63.792297C116.849411,63.853062,116.959785,63.939796,117.04834,64.046692C117.0737,63.821842,117.050537,63.593876,116.980469,63.378723C116.860687,63.129597,116.595108,62.984718,116.320801,63.01886C116.108643,62.99065,115.898315,63.082916,115.775391,63.258118C115.748772,63.311707,115.731743,63.369549,115.725098,63.429016L115.297852,63.492493C115.26828,63.184483,115.442444,62.892555,115.727539,62.772278C115.974625,62.668221,116.244728,62.631004,116.510742,62.664368zM116.225586,64.085754C115.96817,64.147087,115.768631,64.350235,115.711914,64.608704C115.618301,64.944481,115.641205,65.302254,115.776855,65.623352C115.908768,65.897034,116.211472,66.04454,116.508301,65.979797C116.833183,65.88797,117.061264,65.596054,117.071777,65.258606C117.113861,64.980606,117.078377,64.696434,116.969238,64.437317C116.831581,64.163307,116.524704,64.018234,116.225586,64.085754z"/>
    <path transform="matrix(1,0,0,-1,0,0)" style="stroke:none;fill:#0000ff;fill-rule:evenodd" d="M113.565918,63.670227C113.828773,63.722889,114.072166,63.846275,114.27002,64.027161L114.301758,63.855774L114.35791,63.707336L114.816895,63.707336L114.747559,63.85968C114.681908,64.166473,114.658424,64.480614,114.677734,64.793762L114.677734,65.3797C114.707939,65.625687,114.651848,65.874557,114.519043,66.083801C114.286995,66.287308,113.981689,66.386665,113.674316,66.358704C113.350449,66.381721,113.029213,66.284492,112.772461,66.085754C112.631531,65.942139,112.538155,65.758804,112.504883,65.560364L112.93457,65.50177L112.975098,65.629211C113.041458,65.843834,113.24118,65.989899,113.46582,65.988098C113.691238,66.032578,113.925423,65.981033,114.111328,65.846008C114.220169,65.706245,114.264473,65.527237,114.233398,65.352844C113.871681,65.259674,113.503685,65.192764,113.132324,65.152649L113.059082,65.135559C112.858109,65.097672,112.67952,64.982513,112.564102,64.813698C112.448692,64.644882,112.406204,64.436676,112.443848,64.235657C112.51387,63.9161,112.78772,63.681744,113.114258,63.661926C113.264366,63.641899,113.416641,63.644699,113.565918,63.670227zM113.299805,64.000305C113.099884,63.998955,112.929497,64.146347,112.903755,64.344597C112.878006,64.542847,113.005096,64.728867,113.19873,64.778625C113.441772,64.836243,113.687317,64.882843,113.93457,64.918274L114.099121,64.961731L114.233398,65.008606C114.268059,64.770729,114.224701,64.527893,114.109863,64.316711C113.918541,64.070366,113.607445,63.948856,113.299805,64.000305z"/>
    <path transform="matrix(1,0,0,-1,0,0)" style="stroke:none;fill:#0000ff;fill-rule:evenodd" d="M109.757813,65.162415L110.675781,65.162415C111.017044,65.132462,111.358849,65.217789,111.645996,65.404602C112.050819,65.773804,112.136017,66.377769,111.849121,66.844543C111.64032,67.130577,111.302544,67.293236,110.94873,67.278137C110.394089,67.296066,109.838982,67.298836,109.28418,67.286438L109.28418,63.707336L109.757813,63.707336L109.757813,65.162415zM109.757813,65.584778L109.757813,66.864075C110.153572,66.878624,110.549782,66.876022,110.945313,66.856262C111.240578,66.860741,111.490555,66.638763,111.520996,66.345032C111.555756,66.190773,111.529846,66.02858,111.446487,65.894234C111.363136,65.75988,111.229332,65.664627,111.075684,65.627258C110.947098,65.596855,110.815224,65.582581,110.683105,65.584778L109.757813,65.584778z"/>
    <path transform="matrix(1,0,0,-1,0,0)" style="stroke:none;fill:#0000ff;fill-rule:evenodd" d="M122.828613,64.68634L123.595215,64.68634L123.385254,63.646301L123.751465,63.646301L123.963867,64.68634L124.71582,64.68634L124.71582,65.05011L124.037109,65.05011L124.220215,65.93634L124.71582,65.93634L124.71582,66.30011L124.293457,66.30011L124.505859,67.347473L124.137207,67.347473L123.924805,66.30011L123.155762,66.30011L123.368164,67.347473L123.001953,67.347473L122.789551,66.30011L122.049805,66.30011L122.049805,65.93634L122.716309,65.93634L122.535645,65.05011L122.049805,65.05011L122.049805,64.68634L122.462402,64.68634L122.25,63.646301L122.616211,63.646301L122.828613,64.68634zM122.901855,65.05011L123.08252,65.93634L123.851563,65.93634L123.668457,65.05011L122.901855,65.05011z"/>
    <path transform="matrix(1,0,0,-1,0,0)" style="stroke:none;fill:#0000ff;fill-rule:evenodd" d="M77.054504,63.192566C77.506935,63.241364,77.878448,63.572453,77.978821,64.016296L77.524719,64.072449L77.47052,63.942566C77.393288,63.773827,77.252441,63.64233,77.07856,63.577499C76.904678,63.512672,76.71212,63.519867,76.543274,63.596863C76.293106,63.71236,76.119179,63.947395,76.081848,64.220398L76.057434,64.42157L77.991028,64.42157C78.016891,64.738777,77.953651,65.056839,77.808411,65.340027C77.60302,65.691673,77.221283,65.902412,76.81427,65.888855C76.197258,65.904724,75.675034,65.435661,75.624817,64.820496C75.557663,64.445992,75.61602,64.059799,75.790833,63.721863C76.01506,63.363373,76.416504,63.155354,76.838684,63.178894L77.054504,63.192566zM76.081848,64.782898L76.104309,64.944031C76.168716,65.286522,76.470695,65.53302,76.819153,65.527527C77.165741,65.534065,77.462257,65.279755,77.508606,64.936218L77.529602,64.782898L76.081848,64.782898z"/>
    <path transform="matrix(1,0,0,-1,0,0)" style="stroke:none;fill:#0000ff;fill-rule:evenodd" d="M72.537903,63.200378C72.800652,63.253349,73.043968,63.376694,73.242004,63.557312L73.273743,63.385925L73.329895,63.237488L73.788879,63.237488L73.719543,63.389832C73.653183,63.696526,73.629692,64.010757,73.649719,64.323914L73.649719,64.909851C73.679497,65.15583,73.623444,65.404526,73.491028,65.613953C73.258911,65.817352,72.953667,65.916687,72.646301,65.888855C72.322426,65.911919,72.001183,65.81469,71.744446,65.615906C71.603447,65.472336,71.510071,65.288986,71.476868,65.090515L71.906555,65.031921L71.946594,65.159363C72.013069,65.374107,72.21302,65.520195,72.437805,65.51825C72.663223,65.562691,72.897392,65.511147,73.083313,65.37616C73.192085,65.236374,73.236389,65.057381,73.205383,64.882996C72.843506,64.789795,72.475349,64.722885,72.103821,64.6828L72.031067,64.66571C71.830017,64.627907,71.651299,64.51281,71.535789,64.343987C71.420288,64.175171,71.377754,63.966896,71.415344,63.765808C71.485695,63.446236,71.759628,63.211983,72.086243,63.192078C72.236351,63.17205,72.388626,63.17485,72.537903,63.200378zM72.27179,63.530457C72.085236,63.529015,71.922272,63.657558,71.881844,63.839672C71.841408,64.02179,71.934669,64.207214,72.104309,64.284851C72.366669,64.361053,72.634819,64.415764,72.906067,64.448425L73.070618,64.491882L73.205383,64.538757C73.240219,64.300827,73.196671,64.057877,73.08136,63.846863C72.890236,63.600525,72.5793,63.479004,72.27179,63.530457z"/>
    <path transform="matrix(1,0,0,-1,0,0)" style="stroke:none;fill:#0000ff;fill-rule:evenodd" d="M75.197083,63.213074L75.372864,63.242371L75.309387,63.630554L75.201477,63.617859C75.084648,63.57428,74.95256,63.622257,74.89093,63.730652C74.870262,63.809448,74.862343,63.891052,74.867493,63.972351L74.867493,65.488464L75.309387,65.488464L75.309387,65.830261L74.867493,65.830261L74.867493,66.736023L74.430481,66.472351L74.430481,65.830261L74.108215,65.830261L74.108215,65.488464L74.430481,65.488464L74.430481,63.996765C74.419823,63.82198,74.437973,63.646622,74.484192,63.477722C74.597153,63.282116,74.816887,63.17379,75.040833,63.203308L75.197083,63.213074z"/>
    <path transform="matrix(1,0,0,-1,0,0)" style="stroke:none;fill:#0000ff;fill-rule:evenodd" d="M69.603821,63.252625C69.926704,63.268257,70.233643,63.39785,70.470032,63.618347C70.81591,64.011246,70.993629,64.523895,70.965149,65.04657C70.994385,65.529671,70.84037,66.006371,70.533997,66.381042C70.249542,66.680069,69.847313,66.83828,69.435364,66.813171C68.959015,66.822609,68.482559,66.823746,68.006165,66.816589L68.006165,63.237488L69.297668,63.237488L69.603821,63.252625zM68.479797,63.659851L68.479797,66.394226C68.851799,66.415131,69.224876,66.409096,69.596008,66.37616C69.956017,66.338875,70.260414,66.093552,70.373352,65.749695C70.553932,65.210091,70.516975,64.621368,70.270325,64.108582C70.085281,63.815933,69.757225,63.64603,69.411438,63.663757C69.100937,63.655212,68.790375,63.653912,68.479797,63.659851z"/>
    <path transform="matrix(1,0,0,-1,0,0)" style="stroke:none;fill:#0000ff;fill-rule:evenodd" d="M55.116699,62.694733L55.261719,62.740631C55.433609,62.825405,55.549072,62.993607,55.566406,63.184479C55.589119,63.318504,55.599579,63.454319,55.597656,63.59024L55.597656,66.324615L55.158203,66.324615L55.158203,63.600006C55.173454,63.44825,55.150803,63.295052,55.092285,63.154205C55.019604,63.072987,54.906406,63.041542,54.802246,63.073639L54.68457,63.099518L54.601563,62.725983C54.768852,62.677658,54.944798,62.666985,55.116699,62.694733z"/>
    <path transform="matrix(1,0,0,-1,0,0)" style="stroke:none;fill:#0000ff;fill-rule:evenodd" d="M60.30957,63.688873C60.779125,63.767803,61.13768,64.151566,61.18457,64.625397L60.752441,64.681549L60.721191,64.527252C60.684559,64.359627,60.582142,64.213356,60.436172,64.123192C60.290203,64.033035,60.113552,64.006935,59.947266,64.049225C59.684555,64.107727,59.481091,64.315598,59.428223,64.579498C59.334892,64.933289,59.358185,65.307861,59.494629,65.647369C59.651405,65.950294,60.004448,66.094772,60.328613,65.988678C60.536163,65.905693,60.683811,65.718201,60.71582,65.496979L61.143066,65.562897C61.093204,65.923248,60.839199,66.222374,60.491699,66.329987C59.997044,66.497345,59.450813,66.323387,59.144043,65.900787C58.860779,65.376839,58.847519,64.749222,59.108398,64.213776C59.315186,63.863018,59.6987,63.655109,60.105469,63.673248L60.30957,63.688873z"/>
    <path transform="matrix(1,0,0,-1,0,0)" style="stroke:none;fill:#0000ff;fill-rule:evenodd" d="M57.564941,63.68692C58.017494,63.735622,58.389225,64.066719,58.489746,64.510651L58.035645,64.566803L57.980957,64.43692C57.903877,64.268173,57.7631,64.136688,57.589279,64.071854C57.415462,64.007011,57.222965,64.014175,57.054199,64.091217C56.80378,64.206505,56.629612,64.441605,56.592285,64.714752L56.568359,64.915924L58.501953,64.915924C58.52734,65.233162,58.463947,65.551132,58.318848,65.834381C58.11359,66.185928,57.732056,66.396667,57.325195,66.383209C56.708099,66.39901,56.185799,65.930077,56.135254,65.31485C56.067989,64.9403,56.126534,64.554016,56.301758,64.216217C56.525803,63.857529,56.927368,63.649448,57.349609,63.673248L57.564941,63.68692zM56.592773,65.277252L56.615234,65.438385C56.679482,65.780998,56.981537,66.027557,57.330078,66.021881C57.676636,66.028633,57.973152,65.774139,58.019043,65.430573L58.040527,65.277252L56.592773,65.277252z"/>
    <path transform="matrix(1,0,0,-1,0,0)" style="stroke:none;fill:#0000ff;fill-rule:evenodd" d="M53.579102,63.683014L53.739258,63.712799C54.254696,63.836048,54.618202,64.298065,54.616699,64.828033C54.664909,65.176468,54.601311,65.531235,54.435059,65.841217C54.215809,66.191841,53.825848,66.39856,53.412598,66.383209C53.094002,66.392319,52.784618,66.272949,52.556553,66.050316C52.328487,65.827682,52.201694,65.521271,52.203125,65.202545C52.165585,64.862946,52.229103,64.519867,52.385742,64.216217C52.604385,63.862522,52.997189,63.654819,53.412598,63.673248L53.579102,63.683014zM53.254883,64.050201C52.91222,64.136467,52.669353,64.441551,52.662109,64.79483C52.617455,65.079117,52.655243,65.370232,52.770996,65.633698C52.921387,65.924232,53.249382,66.076477,53.568359,66.003815C53.906853,65.917343,54.148048,65.618088,54.160645,65.268951C54.204742,64.98278,54.167171,64.689987,54.052246,64.424225C53.903831,64.131447,53.574898,63.977154,53.254883,64.050201z"/>
    <path transform="matrix(1,0,0,-1,0,0)" style="stroke:none;fill:#0000ff;fill-rule:evenodd" d="M51.14502,65.089264C51.12682,65.314659,51.175076,65.540833,51.283691,65.739166C51.398403,65.905945,51.611477,65.974228,51.801758,65.905182L51.962891,65.833893L52.114258,66.241608C51.901562,66.402206,51.614681,66.423218,51.380859,66.295319C51.262306,66.195801,51.166832,66.071671,51.101074,65.931549L51.101074,66.324615L50.705566,66.324615L50.705566,63.731842L51.14502,63.731842L51.14502,65.089264z"/>
    <path transform="matrix(1,0,0,-1,0,0)" style="stroke:none;fill:#0000ff;fill-rule:evenodd" d="M62.407715,63.707428L62.583496,63.736725L62.52002,64.124908L62.412109,64.112213C62.295151,64.068596,62.162884,64.116562,62.101074,64.225006C62.081017,64.303909,62.073277,64.385437,62.078125,64.466705L62.078125,65.982819L62.52002,65.982819L62.52002,66.324615L62.078125,66.324615L62.078125,67.230377L61.641113,66.966705L61.641113,66.324615L61.318848,66.324615L61.318848,65.982819L61.641113,65.982819L61.641113,64.491119C61.629913,64.316322,61.648071,64.140869,61.694824,63.972076C61.807785,63.77647,62.027523,63.668144,62.251465,63.697662L62.407715,63.707428z"/>
    <path transform="matrix(1,0,0,-1,0,0)" style="stroke:none;fill:#0000ff;fill-rule:evenodd" d="M55.597656,67.310944L55.158203,67.310944L55.158203,66.80069L55.597656,66.80069L55.597656,67.310944z"/>
    <path transform="matrix(1,0,0,-1,0,0)" style="stroke:none;fill:#0000ff;fill-rule:evenodd" d="M47.890137,65.18692C48.256981,65.178741,48.623962,65.180367,48.990723,65.191803C49.309193,65.178009,49.620804,65.28978,49.85791,65.502838C50.226921,65.911606,50.250553,66.525406,49.914063,66.961334C49.697548,67.188316,49.394585,67.312447,49.081055,67.302643C48.526413,67.320572,47.971302,67.323341,47.416504,67.310944L47.416504,63.731842L47.890137,63.731842L47.890137,65.18692zM47.890137,65.609283L47.890137,66.88858C48.285892,66.90313,48.682102,66.900528,49.077637,66.880768C49.372906,66.885246,49.622875,66.663269,49.65332,66.369537C49.68808,66.215279,49.662167,66.053085,49.578815,65.918739C49.495464,65.784386,49.361656,65.689133,49.208008,65.651764C49.079422,65.621361,48.947548,65.607086,48.81543,65.609283L47.890137,65.609283z"/>
    <path transform="matrix(1,0,0,-1,0,0)" style="stroke:none;fill:#0000ff;fill-rule:evenodd" d="M65.184776,73.292236L65.478233,73.354248C66.027611,73.519272,66.445419,73.96788,66.571007,74.527588L65.889854,74.612061L65.808311,74.417725C65.610443,73.962868,65.112701,73.716583,64.631065,73.835205C64.242332,73.914398,63.92511,74.194244,63.798058,74.570068C63.733757,74.75206,63.697056,74.942642,63.689171,75.135498L66.589561,75.135498C66.643623,75.67363,66.51123,76.21405,66.214561,76.66626C65.797798,77.206169,65.105103,77.454735,64.440147,77.302979C63.675476,77.151947,63.103573,76.511452,63.039757,75.734619C62.938938,75.172813,63.026657,74.593452,63.289268,74.08667C63.623131,73.546516,64.227203,73.233315,64.861046,73.271729L65.184776,73.292236zM63.725792,75.67749L63.759483,75.919189C63.856098,76.433006,64.30899,76.802788,64.831749,76.794678C65.351387,76.804367,65.795944,76.423019,65.86544,75.907959L65.897179,75.67749L63.725792,75.67749z"/>
    <path transform="matrix(1,0,0,-1,0,0)" style="stroke:none;fill:#0000ff;fill-rule:evenodd" d="M57.58712,75.377197L57.593468,75.627197C57.582176,75.916321,57.665939,76.201599,57.831749,76.438721C58.114925,76.7789,58.601669,76.8647,58.984093,76.641846C59.174671,76.43882,59.267418,76.163429,59.238487,75.886475L59.238487,73.359619L59.897667,73.359619L59.897667,75.618896C59.883194,75.867104,59.935844,76.114822,60.050011,76.335693C60.283478,76.707939,60.747063,76.862877,61.157433,76.705811C61.380127,76.61055,61.525078,76.391869,61.526085,76.149658C61.537239,76.03656,61.542618,75.922974,61.542198,75.809326L61.542198,73.359619L62.197472,73.359619L62.197472,76.029053C62.213165,76.308304,62.152542,76.586777,62.022179,76.834229C61.86055,77.104225,61.581615,77.282829,61.268761,77.31665C60.688084,77.423851,60.101143,77.160522,59.795128,76.655518L59.728233,76.807861C59.513939,77.167175,59.113323,77.372513,58.696495,77.33667C58.220154,77.344597,57.773758,77.104851,57.517296,76.703369L57.517296,77.248779L56.92794,77.248779L56.92794,73.359619L57.58712,73.359619L57.58712,75.377197z"/>
    <path transform="matrix(1,0,0,-1,0,0)" style="stroke:none;fill:#0000ff;fill-rule:evenodd" d="M54.02462,73.279541C54.488499,73.324387,54.924664,73.521095,55.265343,73.839111L55.313194,73.582275L55.397179,73.359619L56.085655,73.359619L55.98214,73.588135C55.894753,73.90834,55.860115,74.240677,55.879601,74.572021C55.876251,75.004616,55.875443,75.435341,55.877159,75.86792L55.875206,76.071045C55.902946,76.37471,55.818851,76.678413,55.638878,76.924561C55.361519,77.188751,54.992115,77.333954,54.609093,77.329346C54.104729,77.390602,53.593781,77.28656,53.153526,77.032959C52.861904,76.819237,52.668766,76.496872,52.617882,76.138916L53.262413,76.051025L53.322472,76.242432C53.42205,76.564659,53.722034,76.783936,54.059288,76.781006C54.34024,76.821106,54.626808,76.780991,54.885948,76.665283C55.070389,76.575058,55.191559,76.391808,55.202354,76.186768C55.214989,76.067574,55.217766,75.947533,55.210655,75.827881C54.713196,75.693855,54.205429,75.601746,53.692589,75.55249L53.558311,75.527588C53.218632,75.475067,52.912441,75.292824,52.704308,75.019287C52.388012,74.571815,52.449406,73.960373,52.848351,73.584717C53.125656,73.360054,53.477585,73.248268,53.833702,73.271729L54.02462,73.279541zM53.810265,73.799072C53.622108,73.802406,53.444908,73.890762,53.331554,74.040947C53.218201,74.191132,53.181808,74.385765,53.230186,74.567627C53.312798,74.809784,53.531773,74.979965,53.786827,75.000244C54.012985,75.04847,54.241035,75.087234,54.470421,75.116455L54.761925,75.176025C54.914761,75.209488,55.064785,75.254707,55.210655,75.311279C55.244835,75.006912,55.208385,74.698425,55.10421,74.4104C54.885273,74.004524,54.451359,73.761871,53.990929,73.787842L53.810265,73.799072z"/>
    <path transform="matrix(1,0,0,-1,0,0)" style="stroke:none;fill:#0000ff;fill-rule:evenodd" d="M48.085655,77.578369L50.905479,73.359619L51.634483,73.359619L51.634483,78.728271L50.953331,78.728271L50.953331,74.512939L48.133507,78.728271L47.404503,78.728271L47.404503,73.359619L48.085655,73.359619L48.085655,77.578369z"/>
    <path transform="matrix(1,0,0,-1,0,0)" style="stroke:none;fill:#0000ff;fill-rule:evenodd" d="M64.398926,85.281982L64.578613,85.312744C64.935333,85.400505,65.244881,85.621788,65.443359,85.930908L65.443359,85.359619L66.032715,85.359619L66.032715,89.248779L65.373535,89.248779L65.373535,87.164795C65.401314,86.860031,65.341827,86.553291,65.202148,86.281006C64.922531,85.879196,64.399551,85.729538,63.949707,85.922607C63.682159,86.067307,63.525166,86.356216,63.549316,86.659424C63.524734,87.522278,63.521317,88.385735,63.539063,89.248779L62.879883,89.248779C62.869888,88.37989,62.870697,87.511696,62.882324,86.642822C62.856403,86.279259,62.972065,85.919678,63.205078,85.639404C63.532875,85.353638,63.968025,85.223366,64.398926,85.281982z"/>
    <path transform="matrix(1,0,0,-1,0,0)" style="stroke:none;fill:#0000ff;fill-rule:evenodd" d="M82.446289,87.395752L82.453125,87.600342C82.453072,87.869911,82.522392,88.135269,82.654297,88.370361C82.859077,88.655304,83.24424,88.743057,83.552246,88.574951L83.67334,88.512939L83.900391,89.124268C83.640091,89.309563,83.312996,89.374947,83.001465,89.303955C82.780624,89.221016,82.598839,89.058563,82.491699,88.848389L82.380371,88.659424L82.380371,89.248779L81.787109,89.248779L81.787109,85.359619L82.446289,85.359619L82.446289,87.395752z"/>
    <path transform="matrix(1,0,0,-1,0,0)" style="stroke:none;fill:#0000ff;fill-rule:evenodd" d="M79.55127,85.292236C80.229866,85.365387,80.787239,85.861916,80.937988,86.527588L80.256836,86.612061L80.175293,86.417725C79.977196,85.963081,79.479652,85.716888,78.998047,85.835205C78.609245,85.914299,78.292,86.194168,78.165039,86.570068C78.100739,86.75206,78.064041,86.942642,78.056152,87.135498L80.956543,87.135498C81.010452,87.673615,80.878067,88.213989,80.581543,88.66626C80.164688,89.206055,79.472084,89.454582,78.807129,89.302979C78.042442,89.151817,77.470459,88.511459,77.40625,87.734619C77.305542,87.172813,77.393257,86.593475,77.655762,86.08667C77.989899,85.546547,78.594063,85.233391,79.228027,85.271729L79.55127,85.292236zM78.092773,87.67749L78.126465,87.919189C78.222809,88.433159,78.67588,88.803078,79.19873,88.794678C79.718346,88.804588,80.162895,88.423058,80.231934,87.907959L80.26416,87.67749L78.092773,87.67749z"/>
    <path transform="matrix(1,0,0,-1,0,0)" style="stroke:none;fill:#0000ff;fill-rule:evenodd" d="M67.753906,87.377197L67.760254,87.627197C67.748962,87.916321,67.832726,88.201599,67.998535,88.438721C68.281715,88.7789,68.768456,88.8647,69.150879,88.641846C69.341454,88.43882,69.434204,88.163429,69.405273,87.886475L69.405273,85.359619L70.064453,85.359619L70.064453,87.618896C70.04998,87.867104,70.102631,88.114822,70.216797,88.335693C70.450264,88.707939,70.913849,88.862877,71.324219,88.705811C71.546913,88.61055,71.691864,88.391869,71.692871,88.149658C71.704025,88.03656,71.709404,87.922974,71.708984,87.809326L71.708984,85.359619L72.364258,85.359619L72.364258,88.029053C72.379951,88.308304,72.319328,88.586777,72.188965,88.834229C72.027336,89.104225,71.748405,89.282829,71.435547,89.31665C70.854874,89.423851,70.267929,89.160522,69.961914,88.655518L69.89502,88.807861C69.680725,89.167175,69.280106,89.372513,68.863281,89.33667C68.38694,89.344597,67.940544,89.104851,67.684082,88.703369L67.684082,89.248779L67.094727,89.248779L67.094727,85.359619L67.753906,85.359619L67.753906,87.377197z"/>
    <path transform="matrix(1,0,0,-1,0,0)" style="stroke:none;fill:#0000ff;fill-rule:evenodd" d="M75.252441,85.280029C75.985825,85.38253,76.56868,85.947235,76.694336,86.677002C76.859077,87.344704,76.761009,88.050247,76.42041,88.647705C76.010414,89.273003,75.208855,89.509071,74.525391,89.205811C74.339584,89.112045,74.177078,88.977905,74.049805,88.813232L74.049805,90.728271L73.390625,90.728271L73.390625,85.359619L74.002441,85.359619L74.002441,85.846436L74.10498,85.712158C74.387413,85.380104,74.821129,85.216766,75.252441,85.280029zM74.898438,85.821533L74.775879,85.845459C74.379883,85.97287,74.093788,86.31839,74.04248,86.731201C73.968277,87.138695,73.978912,87.557007,74.07373,87.960205C74.165749,88.350822,74.462196,88.661285,74.848145,88.77124C75.338097,88.868225,75.82222,88.580826,75.97168,88.104248C76.150932,87.54628,76.130051,86.943878,75.912598,86.399658C75.755051,86.050568,75.410728,85.82254,75.027832,85.813721L74.898438,85.821533z"/>
    <path transform="matrix(1,0,0,-1,0,0)" style="stroke:none;fill:#0000ff;fill-rule:evenodd" d="M58.252441,89.578369L61.072266,85.359619L61.80127,85.359619L61.80127,90.728271L61.120117,90.728271L61.120117,86.512939L58.300293,90.728271L57.571289,90.728271L57.571289,85.359619L58.252441,85.359619L58.252441,89.578369z"/>
    <path transform="matrix(1,0,0,-1,0,0)" style="stroke:none;fill:#0000ff;fill-rule:evenodd" d="M52.252441,85.365479C52.75465,85.361122,53.244812,85.5196,53.649414,85.817139C54.126801,86.253326,54.423584,86.852287,54.481445,87.496338C54.594891,88.216461,54.492771,88.954224,54.187988,89.616455C53.865829,90.269402,53.207832,90.690384,52.47998,90.709229C52.296371,90.722633,52.11232,90.728989,51.928223,90.728271L50.078613,90.728271L50.078613,85.359619C50.803131,85.343605,51.52803,85.345558,52.252441,85.365479zM50.789063,85.99292L50.789063,90.094971C51.263298,90.104309,51.737785,90.101868,52.211914,90.087646C52.496193,90.095238,52.777378,90.026794,53.026367,89.889404C53.389175,89.642647,53.63755,89.26059,53.71582,88.828857C53.832703,88.238342,53.807941,87.628654,53.643555,87.049561C53.553799,86.704727,53.338562,86.405731,53.040039,86.211182C52.698433,86.039925,52.316616,85.96447,51.935547,85.99292L50.789063,85.99292z"/>
    <path transform="matrix(1,0,0,-1,0,0)" style="stroke:none;fill:#0000ff;fill-rule:evenodd" d="M48.810059,90.728271L48.099609,90.728271L48.099609,85.359619L48.810059,85.359619L48.810059,90.728271z"/>
</svg>
