  0
SECTION
  2
HEADER
  9
$ACADVER
  1
AC1009
  0
ENDSEC
  0
SECTION
  2
ENTITIES
  0
POLYLINE
  5
90
  8
Layer_0
  62
0
  66
1
  10
0
  20
0
  30
0
  0
VERTEX
  5
90
  8
Layer_0
  10
155.01407
  20
28.760548
  0
VERTEX
  5
91
  8
Layer_0
  10
30.193779
  20
28.760548
  0
VERTEX
  5
92
  8
Layer_0
  10
30.193779
  20
119.23076
  0
VERTEX
  5
93
  8
Layer_0
  10
155.01407
  20
119.23076
  0
VERTEX
  5
94
  8
Layer_0
  10
155.01407
  20
28.760548
  0
SEQEND
  0
POLYLINE
  5
96
  8
Layer_0
  62
0
  66
1
  10
0
  20
0
  30
0
  0
VERTEX
  5
96
  8
Layer_0
  10
138.75732
  20
114.26289
  0
VERTEX
  5
97
  8
Layer_0
  10
137.75732
  20
114.26289
  0
VERTEX
  5
98
  8
Layer_0
  10
137.75732
  20
44.762886
  0
VERTEX
  5
99
  8
Layer_0
  10
37.757324
  20
44.762886
  0
VERTEX
  5
9a
  8
Layer_0
  10
37.757324
  20
43.762886
  0
VERTEX
  5
9b
  8
Layer_0
  10
138.75732
  20
43.762886
  0
VERTEX
  5
9c
  8
Layer_0
  10
138.75732
  20
114.26289
  0
SEQEND
  0
POLYLINE
  5
9e
  8
Layer_0
  62
0
  66
1
  10
0
  20
0
  30
0
  0
VERTEX
  5
9e
  8
Layer_0
  10
45.24707
  20
70.763184
  0
VERTEX
  5
9f
  8
Layer_0
  10
64.5
  20
70.763184
  0
VERTEX
  5
a0
  8
Layer_0
  10
64.5
  20
61.15332
  0
VERTEX
  5
a1
  8
Layer_0
  10
65.5
  20
61.15332
  0
VERTEX
  5
a2
  8
Layer_0
  10
65.5
  20
70.763184
  0
VERTEX
  5
a3
  8
Layer_0
  10
89.5
  20
70.763184
  0
VERTEX
  5
a4
  8
Layer_0
  10
89.5
  20
61.15332
  0
VERTEX
  5
a5
  8
Layer_0
  10
90.5
  20
61.15332
  0
VERTEX
  5
a6
  8
Layer_0
  10
90.5
  20
70.763184
  0
VERTEX
  5
a7
  8
Layer_0
  10
105.8667
  20
70.763184
  0
VERTEX
  5
a8
  8
Layer_0
  10
105.8667
  20
61.15332
  0
VERTEX
  5
a9
  8
Layer_0
  10
106.8667
  20
61.15332
  0
VERTEX
  5
aa
  8
Layer_0
  10
106.8667
  20
70.763184
  0
VERTEX
  5
ab
  8
Layer_0
  10
125.74707
  20
70.763184
  0
VERTEX
  5
ac
  8
Layer_0
  10
125.74707
  20
71.763184
  0
VERTEX
  5
ad
  8
Layer_0
  10
45.24707
  20
71.763184
  0
VERTEX
  5
ae
  8
Layer_0
  10
45.24707
  20
81.763184
  0
VERTEX
  5
af
  8
Layer_0
  10
125.74707
  20
81.763184
  0
VERTEX
  5
b0
  8
Layer_0
  10
125.74707
  20
82.763184
  0
VERTEX
  5
b1
  8
Layer_0
  10
45.24707
  20
82.763184
  0
VERTEX
  5
b2
  8
Layer_0
  10
45.24707
  20
92.763184
  0
VERTEX
  5
b3
  8
Layer_0
  10
125.74707
  20
92.763184
  0
VERTEX
  5
b4
  8
Layer_0
  10
125.74707
  20
93.763184
  0
VERTEX
  5
b5
  8
Layer_0
  10
44.24707
  20
93.763184
  0
VERTEX
  5
b6
  8
Layer_0
  10
44.24707
  20
61.15332
  0
VERTEX
  5
b7
  8
Layer_0
  10
45.24707
  20
61.15332
  0
VERTEX
  5
b8
  8
Layer_0
  10
45.24707
  20
70.763184
  0
SEQEND
  0
POLYLINE
  5
ba
  8
Layer_1
  62
5
  66
1
  10
0
  20
0
  30
0
  0
VERTEX
  5
ba
  8
Layer_1
  10
48.810059
  20
90.728271
  0
VERTEX
  5
bb
  8
Layer_1
  10
48.099609
  20
90.728271
  0
VERTEX
  5
bc
  8
Layer_1
  10
48.099609
  20
85.359619
  0
VERTEX
  5
bd
  8
Layer_1
  10
48.810059
  20
85.359619
  0
VERTEX
  5
be
  8
Layer_1
  10
48.810059
  20
90.728271
  0
SEQEND
  0
POLYLINE
  5
c0
  8
Layer_1
  62
5
  66
1
  10
0
  20
0
  30
0
  0
VERTEX
  5
c0
  8
Layer_1
  10
52.252441
  20
85.365479
  42
0.16208588
  0
VERTEX
  5
c1
  8
Layer_1
  10
53.649414
  20
85.817139
  42
0.18736405
  0
VERTEX
  5
c2
  8
Layer_1
  10
54.481445
  20
87.496338
  42
0.14796222
  0
VERTEX
  5
c3
  8
Layer_1
  10
54.187988
  20
89.616455
  42
0.27852565
  0
VERTEX
  5
c4
  8
Layer_1
  10
52.47998
  20
90.709229
  42
0.01919572
  0
VERTEX
  5
c5
  8
Layer_1
  10
51.928223
  20
90.728271
  0
VERTEX
  5
c6
  8
Layer_1
  10
50.078613
  20
90.728271
  0
VERTEX
  5
c7
  8
Layer_1
  10
50.078613
  20
85.359619
  42
0.012398456
  0
VERTEX
  5
c8
  8
Layer_1
  10
52.252441
  20
85.365479
  0
SEQEND
  0
POLYLINE
  5
ca
  8
Layer_1
  62
5
  66
1
  10
0
  20
0
  30
0
  0
VERTEX
  5
ca
  8
Layer_1
  10
58.252441
  20
89.578369
  0
VERTEX
  5
cb
  8
Layer_1
  10
61.072266
  20
85.359619
  0
VERTEX
  5
cc
  8
Layer_1
  10
61.80127
  20
85.359619
  0
VERTEX
  5
cd
  8
Layer_1
  10
61.80127
  20
90.728271
  0
VERTEX
  5
ce
  8
Layer_1
  10
61.120117
  20
90.728271
  0
VERTEX
  5
cf
  8
Layer_1
  10
61.120117
  20
86.512939
  0
VERTEX
  5
d0
  8
Layer_1
  10
58.300293
  20
90.728271
  0
VERTEX
  5
d1
  8
Layer_1
  10
57.571289
  20
90.728271
  0
VERTEX
  5
d2
  8
Layer_1
  10
57.571289
  20
85.359619
  0
VERTEX
  5
d3
  8
Layer_1
  10
58.252441
  20
85.359619
  0
VERTEX
  5
d4
  8
Layer_1
  10
58.252441
  20
89.578369
  0
SEQEND
  0
POLYLINE
  5
d6
  8
Layer_1
  62
5
  66
1
  10
0
  20
0
  30
0
  0
VERTEX
  5
d6
  8
Layer_1
  10
75.252441
  20
85.280029
  42
0.32624376
  0
VERTEX
  5
d7
  8
Layer_1
  10
76.694336
  20
86.677002
  42
0.19232478
  0
VERTEX
  5
d8
  8
Layer_1
  10
76.42041
  20
88.647705
  42
0.3673104
  0
VERTEX
  5
d9
  8
Layer_1
  10
74.525391
  20
89.205811
  42
0.11182636
  0
VERTEX
  5
da
  8
Layer_1
  10
74.049805
  20
88.813232
  0
VERTEX
  5
db
  8
Layer_1
  10
74.049805
  20
90.728271
  0
VERTEX
  5
dc
  8
Layer_1
  10
73.390625
  20
90.728271
  0
VERTEX
  5
dd
  8
Layer_1
  10
73.390625
  20
85.359619
  0
VERTEX
  5
de
  8
Layer_1
  10
74.002441
  20
85.359619
  0
VERTEX
  5
df
  8
Layer_1
  10
74.002441
  20
85.846436
  0
VERTEX
  5
e0
  8
Layer_1
  10
74.10498
  20
85.712158
  42
0.25843552
  0
VERTEX
  5
e1
  8
Layer_1
  10
75.252441
  20
85.280029
  0
SEQEND
  0
POLYLINE
  5
e3
  8
Layer_1
  62
5
  66
1
  10
0
  20
0
  30
0
  0
VERTEX
  5
e3
  8
Layer_1
  10
50.789063
  20
85.99292
  0
VERTEX
  5
e4
  8
Layer_1
  10
50.789063
  20
90.094971
  42
-0.012415166
  0
VERTEX
  5
e5
  8
Layer_1
  10
52.211914
  20
90.087646
  42
-0.13351007
  0
VERTEX
  5
e6
  8
Layer_1
  10
53.026367
  20
89.889404
  42
-0.20119576
  0
VERTEX
  5
e7
  8
Layer_1
  10
53.71582
  20
88.828857
  42
-0.11855177
  0
VERTEX
  5
e8
  8
Layer_1
  10
53.643555
  20
87.049561
  42
-0.18677536
  0
VERTEX
  5
e9
  8
Layer_1
  10
53.040039
  20
86.211182
  42
-0.13563245
  0
VERTEX
  5
ea
  8
Layer_1
  10
51.935547
  20
85.99292
  0
VERTEX
  5
eb
  8
Layer_1
  10
50.789063
  20
85.99292
  0
SEQEND
  0
POLYLINE
  5
ed
  8
Layer_1
  62
5
  66
1
  10
0
  20
0
  30
0
  0
VERTEX
  5
ed
  8
Layer_1
  10
67.753906
  20
87.377197
  0
VERTEX
  5
ee
  8
Layer_1
  10
67.760254
  20
87.627197
  42
-0.16375206
  0
VERTEX
  5
ef
  8
Layer_1
  10
67.998535
  20
88.438721
  42
-0.36622296
  0
VERTEX
  5
f0
  8
Layer_1
  10
69.150879
  20
88.641846
  42
-0.2178145
  0
VERTEX
  5
f1
  8
Layer_1
  10
69.405273
  20
87.886475
  0
VERTEX
  5
f2
  8
Layer_1
  10
69.405273
  20
85.359619
  0
VERTEX
  5
f3
  8
Layer_1
  10
70.064453
  20
85.359619
  0
VERTEX
  5
f4
  8
Layer_1
  10
70.064453
  20
87.618896
  42
-0.13463355
  0
VERTEX
  5
f5
  8
Layer_1
  10
70.216797
  20
88.335693
  42
-0.35829093
  0
VERTEX
  5
f6
  8
Layer_1
  10
71.324219
  20
88.705811
  42
-0.29907333
  0
VERTEX
  5
f7
  8
Layer_1
  10
71.692871
  20
88.149658
  42
-0.025502785
  0
VERTEX
  5
f8
  8
Layer_1
  10
71.708984
  20
87.809326
  0
VERTEX
  5
f9
  8
Layer_1
  10
71.708984
  20
85.359619
  0
VERTEX
  5
fa
  8
Layer_1
  10
72.364258
  20
85.359619
  0
VERTEX
  5
fb
  8
Layer_1
  10
72.364258
  20
88.029053
  42
0.13608587
  0
VERTEX
  5
fc
  8
Layer_1
  10
72.188965
  20
88.834229
  42
0.23512193
  0
VERTEX
  5
fd
  8
Layer_1
  10
71.435547
  20
89.31665
  42
0.31168236
  0
VERTEX
  5
fe
  8
Layer_1
  10
69.961914
  20
88.655518
  0
VERTEX
  5
ff
  8
Layer_1
  10
69.89502
  20
88.807861
  42
0.28723162
  0
VERTEX
  5
100
  8
Layer_1
  10
68.863281
  20
89.33667
  42
0.2604036
  0
VERTEX
  5
101
  8
Layer_1
  10
67.684082
  20
88.703369
  0
VERTEX
  5
102
  8
Layer_1
  10
67.684082
  20
89.248779
  0
VERTEX
  5
103
  8
Layer_1
  10
67.094727
  20
89.248779
  0
VERTEX
  5
104
  8
Layer_1
  10
67.094727
  20
85.359619
  0
VERTEX
  5
105
  8
Layer_1
  10
67.753906
  20
85.359619
  0
VERTEX
  5
106
  8
Layer_1
  10
67.753906
  20
87.377197
  0
SEQEND
  0
POLYLINE
  5
108
  8
Layer_1
  62
5
  66
1
  10
0
  20
0
  30
0
  0
VERTEX
  5
108
  8
Layer_1
  10
79.55127
  20
85.292236
  42
0.32052362
  0
VERTEX
  5
109
  8
Layer_1
  10
80.937988
  20
86.527588
  0
VERTEX
  5
10a
  8
Layer_1
  10
80.256836
  20
86.612061
  0
VERTEX
  5
10b
  8
Layer_1
  10
80.175293
  20
86.417725
  42
-0.36525197
  0
VERTEX
  5
10c
  8
Layer_1
  10
78.998047
  20
85.835205
  42
-0.26719814
  0
VERTEX
  5
10d
  8
Layer_1
  10
78.165039
  20
86.570068
  42
-0.07482975
  0
VERTEX
  5
10e
  8
Layer_1
  10
78.056152
  20
87.135498
  0
VERTEX
  5
10f
  8
Layer_1
  10
80.956543
  20
87.135498
  42
0.17170331
  0
VERTEX
  5
110
  8
Layer_1
  10
80.581543
  20
88.66626
  42
0.29225882
  0
VERTEX
  5
111
  8
Layer_1
  10
78.807129
  20
89.302979
  42
0.33504772
  0
VERTEX
  5
112
  8
Layer_1
  10
77.40625
  20
87.734619
  42
0.16530092
  0
VERTEX
  5
113
  8
Layer_1
  10
77.655762
  20
86.08667
  42
0.27600423
  0
VERTEX
  5
114
  8
Layer_1
  10
79.228027
  20
85.271729
  0
VERTEX
  5
115
  8
Layer_1
  10
79.55127
  20
85.292236
  0
SEQEND
  0
POLYLINE
  5
117
  8
Layer_1
  62
5
  66
1
  10
0
  20
0
  30
0
  0
VERTEX
  5
117
  8
Layer_1
  10
82.446289
  20
87.395752
  0
VERTEX
  5
118
  8
Layer_1
  10
82.453125
  20
87.600342
  42
-0.12857663
  0
VERTEX
  5
119
  8
Layer_1
  10
82.654297
  20
88.370361
  42
-0.37847716
  0
VERTEX
  5
11a
  8
Layer_1
  10
83.552246
  20
88.574951
  0
VERTEX
  5
11b
  8
Layer_1
  10
83.67334
  20
88.512939
  0
VERTEX
  5
11c
  8
Layer_1
  10
83.900391
  20
89.124268
  42
0.21383957
  0
VERTEX
  5
11d
  8
Layer_1
  10
83.001465
  20
89.303955
  42
0.18717053
  0
VERTEX
  5
11e
  8
Layer_1
  10
82.491699
  20
88.848389
  0
VERTEX
  5
11f
  8
Layer_1
  10
82.380371
  20
88.659424
  0
VERTEX
  5
120
  8
Layer_1
  10
82.380371
  20
89.248779
  0
VERTEX
  5
121
  8
Layer_1
  10
81.787109
  20
89.248779
  0
VERTEX
  5
122
  8
Layer_1
  10
81.787109
  20
85.359619
  0
VERTEX
  5
123
  8
Layer_1
  10
82.446289
  20
85.359619
  0
VERTEX
  5
124
  8
Layer_1
  10
82.446289
  20
87.395752
  0
SEQEND
  0
POLYLINE
  5
126
  8
Layer_1
  62
5
  66
1
  10
0
  20
0
  30
0
  0
VERTEX
  5
126
  8
Layer_1
  10
64.398926
  20
85.281982
  0
VERTEX
  5
127
  8
Layer_1
  10
64.578613
  20
85.312744
  42
0.19200283
  0
VERTEX
  5
128
  8
Layer_1
  10
65.443359
  20
85.930908
  0
VERTEX
  5
129
  8
Layer_1
  10
65.443359
  20
85.359619
  0
VERTEX
  5
12a
  8
Layer_1
  10
66.032715
  20
85.359619
  0
VERTEX
  5
12b
  8
Layer_1
  10
66.032715
  20
89.248779
  0
VERTEX
  5
12c
  8
Layer_1
  10
65.373535
  20
89.248779
  0
VERTEX
  5
12d
  8
Layer_1
  10
65.373535
  20
87.164795
  42
-0.14216239
  0
VERTEX
  5
12e
  8
Layer_1
  10
65.202148
  20
86.281006
  42
-0.35605761
  0
VERTEX
  5
12f
  8
Layer_1
  10
63.949707
  20
85.922607
  42
-0.29691543
  0
VERTEX
  5
130
  8
Layer_1
  10
63.549316
  20
86.659424
  42
-0.012260782
  0
VERTEX
  5
131
  8
Layer_1
  10
63.539063
  20
89.248779
  0
VERTEX
  5
132
  8
Layer_1
  10
62.879883
  20
89.248779
  42
0.0062208803
  0
VERTEX
  5
133
  8
Layer_1
  10
62.882324
  20
86.642822
  42
0.19355618
  0
VERTEX
  5
134
  8
Layer_1
  10
63.205078
  20
85.639404
  42
0.21633502
  0
VERTEX
  5
135
  8
Layer_1
  10
64.398926
  20
85.281982
  0
SEQEND
  0
POLYLINE
  5
137
  8
Layer_1
  62
5
  66
1
  10
0
  20
0
  30
0
  0
VERTEX
  5
137
  8
Layer_1
  10
74.898438
  20
85.821533
  0
VERTEX
  5
138
  8
Layer_1
  10
74.775879
  20
85.845459
  42
-0.29184852
  0
VERTEX
  5
139
  8
Layer_1
  10
74.04248
  20
86.731201
  42
-0.10313609
  0
VERTEX
  5
13a
  8
Layer_1
  10
74.07373
  20
87.960205
  42
-0.27189009
  0
VERTEX
  5
13b
  8
Layer_1
  10
74.848145
  20
88.77124
  42
-0.38278804
  0
VERTEX
  5
13c
  8
Layer_1
  10
75.97168
  20
88.104248
  42
-0.1744837
  0
VERTEX
  5
13d
  8
Layer_1
  10
75.912598
  20
86.399658
  42
-0.28858526
  0
VERTEX
  5
13e
  8
Layer_1
  10
75.027832
  20
85.813721
  0
VERTEX
  5
13f
  8
Layer_1
  10
74.898438
  20
85.821533
  0
SEQEND
  0
POLYLINE
  5
141
  8
Layer_1
  62
5
  70
1
  66
1
  10
0
  20
0
  30
0
  0
VERTEX
  5
141
  8
Layer_1
  10
78.092773
  20
87.67749
  0
VERTEX
  5
142
  8
Layer_1
  10
78.126465
  20
87.919189
  42
-0.3654697
  0
VERTEX
  5
143
  8
Layer_1
  10
79.19873
  20
88.794678
  42
-0.38115439
  0
VERTEX
  5
144
  8
Layer_1
  10
80.231934
  20
87.907959
  0
VERTEX
  5
145
  8
Layer_1
  10
80.26416
  20
87.67749
  0
SEQEND
  0
POLYLINE
  5
147
  8
Layer_1
  62
5
  66
1
  10
0
  20
0
  30
0
  0
VERTEX
  5
147
  8
Layer_1
  10
48.085655
  20
77.578369
  0
VERTEX
  5
148
  8
Layer_1
  10
50.905479
  20
73.359619
  0
VERTEX
  5
149
  8
Layer_1
  10
51.634483
  20
73.359619
  0
VERTEX
  5
14a
  8
Layer_1
  10
51.634483
  20
78.728271
  0
VERTEX
  5
14b
  8
Layer_1
  10
50.953331
  20
78.728271
  0
VERTEX
  5
14c
  8
Layer_1
  10
50.953331
  20
74.512939
  0
VERTEX
  5
14d
  8
Layer_1
  10
48.133507
  20
78.728271
  0
VERTEX
  5
14e
  8
Layer_1
  10
47.404503
  20
78.728271
  0
VERTEX
  5
14f
  8
Layer_1
  10
47.404503
  20
73.359619
  0
VERTEX
  5
150
  8
Layer_1
  10
48.085655
  20
73.359619
  0
VERTEX
  5
151
  8
Layer_1
  10
48.085655
  20
77.578369
  0
SEQEND
  0
POLYLINE
  5
153
  8
Layer_1
  62
5
  66
1
  10
0
  20
0
  30
0
  0
VERTEX
  5
153
  8
Layer_1
  10
54.02462
  20
73.279541
  42
0.16513602
  0
VERTEX
  5
154
  8
Layer_1
  10
55.265343
  20
73.839111
  0
VERTEX
  5
155
  8
Layer_1
  10
55.313194
  20
73.582275
  0
VERTEX
  5
156
  8
Layer_1
  10
55.397179
  20
73.359619
  0
VERTEX
  5
157
  8
Layer_1
  10
56.085655
  20
73.359619
  0
VERTEX
  5
158
  8
Layer_1
  10
55.98214
  20
73.588135
  42
-0.08147185
  0
VERTEX
  5
159
  8
Layer_1
  10
55.879601
  20
74.572021
  42
-0.0029276531
  0
VERTEX
  5
15a
  8
Layer_1
  10
55.877159
  20
75.86792
  0
VERTEX
  5
15b
  8
Layer_1
  10
55.875206
  20
76.071045
  42
0.18259992
  0
VERTEX
  5
15c
  8
Layer_1
  10
55.638878
  20
76.924561
  42
0.19572431
  0
VERTEX
  5
15d
  8
Layer_1
  10
54.609093
  20
77.329346
  42
0.16227045
  0
VERTEX
  5
15e
  8
Layer_1
  10
53.153526
  20
77.032959
  42
0.20196473
  0
VERTEX
  5
15f
  8
Layer_1
  10
52.617882
  20
76.138916
  0
VERTEX
  5
160
  8
Layer_1
  10
53.262413
  20
76.051025
  0
VERTEX
  5
161
  8
Layer_1
  10
53.322472
  20
76.242432
  42
-0.33132494
  0
VERTEX
  5
162
  8
Layer_1
  10
54.059288
  20
76.781006
  42
-0.14136474
  0
VERTEX
  5
163
  8
Layer_1
  10
54.885948
  20
76.665283
  42
-0.2722556
  0
VERTEX
  5
164
  8
Layer_1
  10
55.202354
  20
76.186768
  42
-0.04125667
  0
VERTEX
  5
165
  8
Layer_1
  10
55.210655
  20
75.827881
  42
-0.041880836
  0
VERTEX
  5
166
  8
Layer_1
  10
53.692589
  20
75.55249
  0
VERTEX
  5
167
  8
Layer_1
  10
53.558311
  20
75.527588
  42
0.19412338
  0
VERTEX
  5
168
  8
Layer_1
  10
52.704308
  20
75.019287
  42
0.37377004
  0
VERTEX
  5
169
  8
Layer_1
  10
52.848351
  20
73.584717
  42
0.18887108
  0
VERTEX
  5
16a
  8
Layer_1
  10
53.833702
  20
73.271729
  0
VERTEX
  5
16b
  8
Layer_1
  10
54.02462
  20
73.279541
  0
SEQEND
  0
POLYLINE
  5
16d
  8
Layer_1
  62
5
  66
1
  10
0
  20
0
  30
0
  0
VERTEX
  5
16d
  8
Layer_1
  10
57.58712
  20
75.377197
  0
VERTEX
  5
16e
  8
Layer_1
  10
57.593468
  20
75.627197
  42
-0.16375207
  0
VERTEX
  5
16f
  8
Layer_1
  10
57.831749
  20
76.438721
  42
-0.36622328
  0
VERTEX
  5
170
  8
Layer_1
  10
58.984093
  20
76.641846
  42
-0.21781389
  0
VERTEX
  5
171
  8
Layer_1
  10
59.238487
  20
75.886475
  0
VERTEX
  5
172
  8
Layer_1
  10
59.238487
  20
73.359619
  0
VERTEX
  5
173
  8
Layer_1
  10
59.897667
  20
73.359619
  0
VERTEX
  5
174
  8
Layer_1
  10
59.897667
  20
75.618896
  42
-0.13463306
  0
VERTEX
  5
175
  8
Layer_1
  10
60.050011
  20
76.335693
  42
-0.35829088
  0
VERTEX
  5
176
  8
Layer_1
  10
61.157433
  20
76.705811
  42
-0.2990737
  0
VERTEX
  5
177
  8
Layer_1
  10
61.526085
  20
76.149658
  42
-0.025502785
  0
VERTEX
  5
178
  8
Layer_1
  10
61.542198
  20
75.809326
  0
VERTEX
  5
179
  8
Layer_1
  10
61.542198
  20
73.359619
  0
VERTEX
  5
17a
  8
Layer_1
  10
62.197472
  20
73.359619
  0
VERTEX
  5
17b
  8
Layer_1
  10
62.197472
  20
76.029053
  42
0.13608531
  0
VERTEX
  5
17c
  8
Layer_1
  10
62.022179
  20
76.834229
  42
0.2351219
  0
VERTEX
  5
17d
  8
Layer_1
  10
61.268761
  20
77.31665
  42
0.31168242
  0
VERTEX
  5
17e
  8
Layer_1
  10
59.795128
  20
76.655518
  0
VERTEX
  5
17f
  8
Layer_1
  10
59.728233
  20
76.807861
  42
0.28723188
  0
VERTEX
  5
180
  8
Layer_1
  10
58.696495
  20
77.33667
  42
0.26040384
  0
VERTEX
  5
181
  8
Layer_1
  10
57.517296
  20
76.703369
  0
VERTEX
  5
182
  8
Layer_1
  10
57.517296
  20
77.248779
  0
VERTEX
  5
183
  8
Layer_1
  10
56.92794
  20
77.248779
  0
VERTEX
  5
184
  8
Layer_1
  10
56.92794
  20
73.359619
  0
VERTEX
  5
185
  8
Layer_1
  10
57.58712
  20
73.359619
  0
VERTEX
  5
186
  8
Layer_1
  10
57.58712
  20
75.377197
  0
SEQEND
  0
POLYLINE
  5
188
  8
Layer_1
  62
5
  66
1
  10
0
  20
0
  30
0
  0
VERTEX
  5
188
  8
Layer_1
  10
65.184776
  20
73.292236
  0
VERTEX
  5
189
  8
Layer_1
  10
65.478233
  20
73.354248
  42
0.27091718
  0
VERTEX
  5
18a
  8
Layer_1
  10
66.571007
  20
74.527588
  0
VERTEX
  5
18b
  8
Layer_1
  10
65.889854
  20
74.612061
  0
VERTEX
  5
18c
  8
Layer_1
  10
65.808311
  20
74.417725
  42
-0.36558399
  0
VERTEX
  5
18d
  8
Layer_1
  10
64.631065
  20
73.835205
  42
-0.26704383
  0
VERTEX
  5
18e
  8
Layer_1
  10
63.798058
  20
74.570068
  42
-0.074833093
  0
VERTEX
  5
18f
  8
Layer_1
  10
63.689171
  20
75.135498
  0
VERTEX
  5
190
  8
Layer_1
  10
66.589561
  20
75.135498
  42
0.17184556
  0
VERTEX
  5
191
  8
Layer_1
  10
66.214561
  20
76.66626
  42
0.2923769
  0
VERTEX
  5
192
  8
Layer_1
  10
64.440147
  20
77.302979
  42
0.33522938
  0
VERTEX
  5
193
  8
Layer_1
  10
63.039757
  20
75.734619
  42
0.16539859
  0
VERTEX
  5
194
  8
Layer_1
  10
63.289268
  20
74.08667
  42
0.27614345
  0
VERTEX
  5
195
  8
Layer_1
  10
64.861046
  20
73.271729
  0
VERTEX
  5
196
  8
Layer_1
  10
65.184776
  20
73.292236
  0
SEQEND
  0
POLYLINE
  5
198
  8
Layer_1
  62
5
  66
1
  10
0
  20
0
  30
0
  0
VERTEX
  5
198
  8
Layer_1
  10
63.725792
  20
75.67749
  0
VERTEX
  5
199
  8
Layer_1
  10
63.759483
  20
75.919189
  42
-0.3651548
  0
VERTEX
  5
19a
  8
Layer_1
  10
64.831749
  20
76.794678
  42
-0.38078475
  0
VERTEX
  5
19b
  8
Layer_1
  10
65.86544
  20
75.907959
  0
VERTEX
  5
19c
  8
Layer_1
  10
65.897179
  20
75.67749
  0
VERTEX
  5
19d
  8
Layer_1
  10
63.725792
  20
75.67749
  0
SEQEND
  0
POLYLINE
  5
19f
  8
Layer_1
  62
5
  70
1
  66
1
  10
0
  20
0
  30
0
  0
VERTEX
  5
19f
  8
Layer_1
  10
53.810265
  20
73.799072
  42
-0.230598
  0
VERTEX
  5
1a0
  8
Layer_1
  10
53.331554
  20
74.040947
  42
-0.23059924
  0
VERTEX
  5
1a1
  8
Layer_1
  10
53.230186
  20
74.567627
  42
-0.29914744
  0
VERTEX
  5
1a2
  8
Layer_1
  10
53.786827
  20
75.000244
  42
-0.020849978
  0
VERTEX
  5
1a3
  8
Layer_1
  10
54.470421
  20
75.116455
  0
VERTEX
  5
1a4
  8
Layer_1
  10
54.761925
  20
75.176025
  42
0.038627868
  0
VERTEX
  5
1a5
  8
Layer_1
  10
55.210655
  20
75.311279
  42
-0.11522623
  0
VERTEX
  5
1a6
  8
Layer_1
  10
55.10421
  20
74.4104
  42
-0.2909299
  0
VERTEX
  5
1a7
  8
Layer_1
  10
53.990929
  20
73.787842
  0
SEQEND
  0
POLYLINE
  5
1a9
  8
Layer_1
  62
5
  66
1
  10
0
  20
0
  30
0
  0
VERTEX
  5
1a9
  8
Layer_1
  10
47.890137
  20
65.18692
  42
0.013369239
  0
VERTEX
  5
1aa
  8
Layer_1
  10
48.990723
  20
65.191803
  42
0.19629295
  0
VERTEX
  5
1ab
  8
Layer_1
  10
49.85791
  20
65.502838
  42
0.362677
  0
VERTEX
  5
1ac
  8
Layer_1
  10
49.914063
  20
66.961334
  42
0.21321123
  0
VERTEX
  5
1ad
  8
Layer_1
  10
49.081055
  20
67.302643
  42
0.013666805
  0
VERTEX
  5
1ae
  8
Layer_1
  10
47.416504
  20
67.310944
  0
VERTEX
  5
1af
  8
Layer_1
  10
47.416504
  20
63.731842
  0
VERTEX
  5
1b0
  8
Layer_1
  10
47.890137
  20
63.731842
  0
VERTEX
  5
1b1
  8
Layer_1
  10
47.890137
  20
65.18692
  0
SEQEND
  0
POLYLINE
  5
1b3
  8
Layer_1
  62
5
  66
1
  10
0
  20
0
  30
0
  0
VERTEX
  5
1b3
  8
Layer_1
  10
55.597656
  20
67.310944
  0
VERTEX
  5
1b4
  8
Layer_1
  10
55.158203
  20
67.310944
  0
VERTEX
  5
1b5
  8
Layer_1
  10
55.158203
  20
66.80069
  0
VERTEX
  5
1b6
  8
Layer_1
  10
55.597656
  20
66.80069
  0
VERTEX
  5
1b7
  8
Layer_1
  10
55.597656
  20
67.310944
  0
SEQEND
  0
POLYLINE
  5
1b9
  8
Layer_1
  62
5
  66
1
  10
0
  20
0
  30
0
  0
VERTEX
  5
1b9
  8
Layer_1
  10
62.407715
  20
63.707428
  0
VERTEX
  5
1ba
  8
Layer_1
  10
62.583496
  20
63.736725
  0
VERTEX
  5
1bb
  8
Layer_1
  10
62.52002
  20
64.124908
  0
VERTEX
  5
1bc
  8
Layer_1
  10
62.412109
  20
64.112213
  42
-0.36778318
  0
VERTEX
  5
1bd
  8
Layer_1
  10
62.101074
  20
64.225006
  42
-0.077280607
  0
VERTEX
  5
1be
  8
Layer_1
  10
62.078125
  20
64.466705
  0
VERTEX
  5
1bf
  8
Layer_1
  10
62.078125
  20
65.982819
  0
VERTEX
  5
1c0
  8
Layer_1
  10
62.52002
  20
65.982819
  0
VERTEX
  5
1c1
  8
Layer_1
  10
62.52002
  20
66.324615
  0
VERTEX
  5
1c2
  8
Layer_1
  10
62.078125
  20
66.324615
  0
VERTEX
  5
1c3
  8
Layer_1
  10
62.078125
  20
67.230377
  0
VERTEX
  5
1c4
  8
Layer_1
  10
61.641113
  20
66.966705
  0
VERTEX
  5
1c5
  8
Layer_1
  10
61.641113
  20
66.324615
  0
VERTEX
  5
1c6
  8
Layer_1
  10
61.318848
  20
66.324615
  0
VERTEX
  5
1c7
  8
Layer_1
  10
61.318848
  20
65.982819
  0
VERTEX
  5
1c8
  8
Layer_1
  10
61.641113
  20
65.982819
  0
VERTEX
  5
1c9
  8
Layer_1
  10
61.641113
  20
64.491119
  42
0.083740408
  0
VERTEX
  5
1ca
  8
Layer_1
  10
61.694824
  20
63.972076
  42
0.30335872
  0
VERTEX
  5
1cb
  8
Layer_1
  10
62.251465
  20
63.697662
  0
VERTEX
  5
1cc
  8
Layer_1
  10
62.407715
  20
63.707428
  0
SEQEND
  0
POLYLINE
  5
1ce
  8
Layer_1
  62
5
  66
1
  10
0
  20
0
  30
0
  0
VERTEX
  5
1ce
  8
Layer_1
  10
47.890137
  20
65.609283
  0
VERTEX
  5
1cf
  8
Layer_1
  10
47.890137
  20
66.88858
  42
-0.021668026
  0
VERTEX
  5
1d0
  8
Layer_1
  10
49.077637
  20
66.880768
  42
-0.38863789
  0
VERTEX
  5
1d1
  8
Layer_1
  10
49.65332
  20
66.369537
  42
-0.196713
  0
VERTEX
  5
1d2
  8
Layer_1
  10
49.578815
  20
65.918739
  42
-0.1967131
  0
VERTEX
  5
1d3
  8
Layer_1
  10
49.208008
  20
65.651764
  42
-0.062285682
  0
VERTEX
  5
1d4
  8
Layer_1
  10
48.81543
  20
65.609283
  0
VERTEX
  5
1d5
  8
Layer_1
  10
47.890137
  20
65.609283
  0
SEQEND
  0
POLYLINE
  5
1d7
  8
Layer_1
  62
5
  66
1
  10
0
  20
0
  30
0
  0
VERTEX
  5
1d7
  8
Layer_1
  10
51.14502
  20
65.089264
  42
-0.14643351
  0
VERTEX
  5
1d8
  8
Layer_1
  10
51.283691
  20
65.739166
  42
-0.34151308
  0
VERTEX
  5
1d9
  8
Layer_1
  10
51.801758
  20
65.905182
  0
VERTEX
  5
1da
  8
Layer_1
  10
51.962891
  20
65.833893
  0
VERTEX
  5
1db
  8
Layer_1
  10
52.114258
  20
66.241608
  42
0.29494514
  0
VERTEX
  5
1dc
  8
Layer_1
  10
51.380859
  20
66.295319
  42
0.10885029
  0
VERTEX
  5
1dd
  8
Layer_1
  10
51.101074
  20
65.931549
  0
VERTEX
  5
1de
  8
Layer_1
  10
51.101074
  20
66.324615
  0
VERTEX
  5
1df
  8
Layer_1
  10
50.705566
  20
66.324615
  0
VERTEX
  5
1e0
  8
Layer_1
  10
50.705566
  20
63.731842
  0
VERTEX
  5
1e1
  8
Layer_1
  10
51.14502
  20
63.731842
  0
VERTEX
  5
1e2
  8
Layer_1
  10
51.14502
  20
65.089264
  0
SEQEND
  0
POLYLINE
  5
1e4
  8
Layer_1
  62
5
  66
1
  10
0
  20
0
  30
0
  0
VERTEX
  5
1e4
  8
Layer_1
  10
53.579102
  20
63.683014
  0
VERTEX
  5
1e5
  8
Layer_1
  10
53.739258
  20
63.712799
  42
0.34781824
  0
VERTEX
  5
1e6
  8
Layer_1
  10
54.616699
  20
64.828033
  42
0.15875682
  0
VERTEX
  5
1e7
  8
Layer_1
  10
54.435059
  20
65.841217
  42
0.2684573
  0
VERTEX
  5
1e8
  8
Layer_1
  10
53.412598
  20
66.383209
  42
0.20321488
  0
VERTEX
  5
1e9
  8
Layer_1
  10
52.556553
  20
66.050316
  42
0.20321459
  0
VERTEX
  5
1ea
  8
Layer_1
  10
52.203125
  20
65.202545
  42
0.1476443
  0
VERTEX
  5
1eb
  8
Layer_1
  10
52.385742
  20
64.216217
  42
0.27177263
  0
VERTEX
  5
1ec
  8
Layer_1
  10
53.412598
  20
63.673248
  0
VERTEX
  5
1ed
  8
Layer_1
  10
53.579102
  20
63.683014
  0
SEQEND
  0
POLYLINE
  5
1ef
  8
Layer_1
  62
5
  66
1
  10
0
  20
0
  30
0
  0
VERTEX
  5
1ef
  8
Layer_1
  10
57.564941
  20
63.68692
  42
0.32057903
  0
VERTEX
  5
1f0
  8
Layer_1
  10
58.489746
  20
64.510651
  0
VERTEX
  5
1f1
  8
Layer_1
  10
58.035645
  20
64.566803
  0
VERTEX
  5
1f2
  8
Layer_1
  10
57.980957
  20
64.43692
  42
-0.1988836
  0
VERTEX
  5
1f3
  8
Layer_1
  10
57.589279
  20
64.071854
  42
-0.19888356
  0
VERTEX
  5
1f4
  8
Layer_1
  10
57.054199
  20
64.091217
  42
-0.25628351
  0
VERTEX
  5
1f5
  8
Layer_1
  10
56.592285
  20
64.714752
  0
VERTEX
  5
1f6
  8
Layer_1
  10
56.568359
  20
64.915924
  0
VERTEX
  5
1f7
  8
Layer_1
  10
58.501953
  20
64.915924
  42
0.13920485
  0
VERTEX
  5
1f8
  8
Layer_1
  10
58.318848
  20
65.834381
  42
0.27551619
  0
VERTEX
  5
1f9
  8
Layer_1
  10
57.325195
  20
66.383209
  42
0.39779726
  0
VERTEX
  5
1fa
  8
Layer_1
  10
56.135254
  20
65.31485
  42
0.16553853
  0
VERTEX
  5
1fb
  8
Layer_1
  10
56.301758
  20
64.216217
  42
0.27374098
  0
VERTEX
  5
1fc
  8
Layer_1
  10
57.349609
  20
63.673248
  0
VERTEX
  5
1fd
  8
Layer_1
  10
57.564941
  20
63.68692
  0
SEQEND
  0
POLYLINE
  5
1ff
  8
Layer_1
  62
5
  66
1
  10
0
  20
0
  30
0
  0
VERTEX
  5
1ff
  8
Layer_1
  10
60.30957
  20
63.688873
  42
0.33851097
  0
VERTEX
  5
200
  8
Layer_1
  10
61.18457
  20
64.625397
  0
VERTEX
  5
201
  8
Layer_1
  10
60.752441
  20
64.681549
  0
VERTEX
  5
202
  8
Layer_1
  10
60.721191
  20
64.527252
  42
-0.20331676
  0
VERTEX
  5
203
  8
Layer_1
  10
60.436172
  20
64.123192
  42
-0.20331587
  0
VERTEX
  5
204
  8
Layer_1
  10
59.947266
  20
64.049225
  42
-0.29676905
  0
VERTEX
  5
205
  8
Layer_1
  10
59.428223
  20
64.579498
  42
-0.16139496
  0
VERTEX
  5
206
  8
Layer_1
  10
59.494629
  20
65.647369
  42
-0.36772755
  0
VERTEX
  5
207
  8
Layer_1
  10
60.328613
  20
65.988678
  42
-0.26782993
  0
VERTEX
  5
208
  8
Layer_1
  10
60.71582
  20
65.496979
  0
VERTEX
  5
209
  8
Layer_1
  10
61.143066
  20
65.562897
  42
0.29107643
  0
VERTEX
  5
20a
  8
Layer_1
  10
60.491699
  20
66.329987
  42
0.32837703
  0
VERTEX
  5
20b
  8
Layer_1
  10
59.144043
  20
65.900787
  42
0.24180222
  0
VERTEX
  5
20c
  8
Layer_1
  10
59.108398
  20
64.213776
  42
0.27747556
  0
VERTEX
  5
20d
  8
Layer_1
  10
60.105469
  20
63.673248
  0
VERTEX
  5
20e
  8
Layer_1
  10
60.30957
  20
63.688873
  0
SEQEND
  0
POLYLINE
  5
210
  8
Layer_1
  62
5
  66
1
  10
0
  20
0
  30
0
  0
VERTEX
  5
210
  8
Layer_1
  10
55.116699
  20
62.694733
  0
VERTEX
  5
211
  8
Layer_1
  10
55.261719
  20
62.740631
  42
0.26122179
  0
VERTEX
  5
212
  8
Layer_1
  10
55.566406
  20
63.184479
  42
0.045532943
  0
VERTEX
  5
213
  8
Layer_1
  10
55.597656
  20
63.59024
  0
VERTEX
  5
214
  8
Layer_1
  10
55.597656
  20
66.324615
  0
VERTEX
  5
215
  8
Layer_1
  10
55.158203
  20
66.324615
  0
VERTEX
  5
216
  8
Layer_1
  10
55.158203
  20
63.600006
  42
-0.12411773
  0
VERTEX
  5
217
  8
Layer_1
  10
55.092285
  20
63.154205
  42
-0.2929039
  0
VERTEX
  5
218
  8
Layer_1
  10
54.802246
  20
63.073639
  0
VERTEX
  5
219
  8
Layer_1
  10
54.68457
  20
63.099518
  0
VERTEX
  5
21a
  8
Layer_1
  10
54.601563
  20
62.725983
  42
0.11076012
  0
VERTEX
  5
21b
  8
Layer_1
  10
55.116699
  20
62.694733
  0
SEQEND
  0
POLYLINE
  5
21d
  8
Layer_1
  62
5
  66
1
  10
0
  20
0
  30
0
  0
VERTEX
  5
21d
  8
Layer_1
  10
56.592773
  20
65.277252
  0
VERTEX
  5
21e
  8
Layer_1
  10
56.615234
  20
65.438385
  42
-0.36551254
  0
VERTEX
  5
21f
  8
Layer_1
  10
57.330078
  20
66.021881
  42
-0.38140075
  0
VERTEX
  5
220
  8
Layer_1
  10
58.019043
  20
65.430573
  0
VERTEX
  5
221
  8
Layer_1
  10
58.040527
  20
65.277252
  0
VERTEX
  5
222
  8
Layer_1
  10
56.592773
  20
65.277252
  0
SEQEND
  0
POLYLINE
  5
224
  8
Layer_1
  62
5
  70
1
  66
1
  10
0
  20
0
  30
0
  0
VERTEX
  5
224
  8
Layer_1
  10
53.254883
  20
64.050201
  42
-0.3379695
  0
VERTEX
  5
225
  8
Layer_1
  10
52.662109
  20
64.79483
  42
-0.14341351
  0
VERTEX
  5
226
  8
Layer_1
  10
52.770996
  20
65.633698
  42
-0.34172268
  0
VERTEX
  5
227
  8
Layer_1
  10
53.568359
  20
66.003815
  42
-0.33267532
  0
VERTEX
  5
228
  8
Layer_1
  10
54.160645
  20
65.268951
  42
-0.14118799
  0
VERTEX
  5
229
  8
Layer_1
  10
54.052246
  20
64.424225
  42
-0.3442139
  0
SEQEND
  0
POLYLINE
  5
22b
  8
Layer_1
  62
5
  66
1
  10
0
  20
0
  30
0
  0
VERTEX
  5
22b
  8
Layer_1
  10
69.603821
  20
63.252625
  42
0.17739285
  0
VERTEX
  5
22c
  8
Layer_1
  10
70.470032
  20
63.618347
  42
0.19653993
  0
VERTEX
  5
22d
  8
Layer_1
  10
70.965149
  20
65.04657
  42
0.18866208
  0
VERTEX
  5
22e
  8
Layer_1
  10
70.533997
  20
66.381042
  42
0.22132601
  0
VERTEX
  5
22f
  8
Layer_1
  10
69.435364
  20
66.813171
  42
0.0087078403
  0
VERTEX
  5
230
  8
Layer_1
  10
68.006165
  20
66.816589
  0
VERTEX
  5
231
  8
Layer_1
  10
68.006165
  20
63.237488
  0
VERTEX
  5
232
  8
Layer_1
  10
69.297668
  20
63.237488
  0
VERTEX
  5
233
  8
Layer_1
  10
69.603821
  20
63.252625
  0
SEQEND
  0
POLYLINE
  5
235
  8
Layer_1
  62
5
  66
1
  10
0
  20
0
  30
0
  0
VERTEX
  5
235
  8
Layer_1
  10
75.197083
  20
63.213074
  0
VERTEX
  5
236
  8
Layer_1
  10
75.372864
  20
63.242371
  0
VERTEX
  5
237
  8
Layer_1
  10
75.309387
  20
63.630554
  0
VERTEX
  5
238
  8
Layer_1
  10
75.201477
  20
63.617859
  42
-0.36811037
  0
VERTEX
  5
239
  8
Layer_1
  10
74.89093
  20
63.730652
  42
-0.080114076
  0
VERTEX
  5
23a
  8
Layer_1
  10
74.867493
  20
63.972351
  0
VERTEX
  5
23b
  8
Layer_1
  10
74.867493
  20
65.488464
  0
VERTEX
  5
23c
  8
Layer_1
  10
75.309387
  20
65.488464
  0
VERTEX
  5
23d
  8
Layer_1
  10
75.309387
  20
65.830261
  0
VERTEX
  5
23e
  8
Layer_1
  10
74.867493
  20
65.830261
  0
VERTEX
  5
23f
  8
Layer_1
  10
74.867493
  20
66.736023
  0
VERTEX
  5
240
  8
Layer_1
  10
74.430481
  20
66.472351
  0
VERTEX
  5
241
  8
Layer_1
  10
74.430481
  20
65.830261
  0
VERTEX
  5
242
  8
Layer_1
  10
74.108215
  20
65.830261
  0
VERTEX
  5
243
  8
Layer_1
  10
74.108215
  20
65.488464
  0
VERTEX
  5
244
  8
Layer_1
  10
74.430481
  20
65.488464
  0
VERTEX
  5
245
  8
Layer_1
  10
74.430481
  20
63.996765
  42
0.0821875
  0
VERTEX
  5
246
  8
Layer_1
  10
74.484192
  20
63.477722
  42
0.30335676
  0
VERTEX
  5
247
  8
Layer_1
  10
75.040833
  20
63.203308
  0
VERTEX
  5
248
  8
Layer_1
  10
75.197083
  20
63.213074
  0
SEQEND
  0
POLYLINE
  5
24a
  8
Layer_1
  62
5
  66
1
  10
0
  20
0
  30
0
  0
VERTEX
  5
24a
  8
Layer_1
  10
68.479797
  20
63.659851
  0
VERTEX
  5
24b
  8
Layer_1
  10
68.479797
  20
66.394226
  42
-0.036178656
  0
VERTEX
  5
24c
  8
Layer_1
  10
69.596008
  20
66.37616
  42
-0.29575908
  0
VERTEX
  5
24d
  8
Layer_1
  10
70.373352
  20
65.749695
  42
-0.19524298
  0
VERTEX
  5
24e
  8
Layer_1
  10
70.270325
  20
64.108582
  42
-0.27089537
  0
VERTEX
  5
24f
  8
Layer_1
  10
69.411438
  20
63.663757
  42
-0.011659194
  0
VERTEX
  5
250
  8
Layer_1
  10
68.479797
  20
63.659851
  0
SEQEND
  0
POLYLINE
  5
252
  8
Layer_1
  62
5
  66
1
  10
0
  20
0
  30
0
  0
VERTEX
  5
252
  8
Layer_1
  10
72.537903
  20
63.200378
  42
0.13594989
  0
VERTEX
  5
253
  8
Layer_1
  10
73.242004
  20
63.557312
  0
VERTEX
  5
254
  8
Layer_1
  10
73.273743
  20
63.385925
  0
VERTEX
  5
255
  8
Layer_1
  10
73.329895
  20
63.237488
  0
VERTEX
  5
256
  8
Layer_1
  10
73.788879
  20
63.237488
  0
VERTEX
  5
257
  8
Layer_1
  10
73.719543
  20
63.389832
  42
-0.069346186
  0
VERTEX
  5
258
  8
Layer_1
  10
73.649719
  20
64.323914
  0
VERTEX
  5
259
  8
Layer_1
  10
73.649719
  20
64.909851
  42
0.17275803
  0
VERTEX
  5
25a
  8
Layer_1
  10
73.491028
  20
65.613953
  42
0.20527786
  0
VERTEX
  5
25b
  8
Layer_1
  10
72.646301
  20
65.888855
  42
0.18453758
  0
VERTEX
  5
25c
  8
Layer_1
  10
71.744446
  20
65.615906
  42
0.15384936
  0
VERTEX
  5
25d
  8
Layer_1
  10
71.476868
  20
65.090515
  0
VERTEX
  5
25e
  8
Layer_1
  10
71.906555
  20
65.031921
  0
VERTEX
  5
25f
  8
Layer_1
  10
71.946594
  20
65.159363
  42
-0.33118127
  0
VERTEX
  5
260
  8
Layer_1
  10
72.437805
  20
65.51825
  42
-0.20861043
  0
VERTEX
  5
261
  8
Layer_1
  10
73.083313
  20
65.37616
  42
-0.21241352
  0
VERTEX
  5
262
  8
Layer_1
  10
73.205383
  20
64.882996
  42
-0.03616776
  0
VERTEX
  5
263
  8
Layer_1
  10
72.103821
  20
64.6828
  0
VERTEX
  5
264
  8
Layer_1
  10
72.031067
  20
64.66571
  42
0.19877368
  0
VERTEX
  5
265
  8
Layer_1
  10
71.535789
  20
64.343987
  42
0.19877359
  0
VERTEX
  5
266
  8
Layer_1
  10
71.415344
  20
63.765808
  42
0.33506593
  0
VERTEX
  5
267
  8
Layer_1
  10
72.086243
  20
63.192078
  42
0.075644521
  0
VERTEX
  5
268
  8
Layer_1
  10
72.537903
  20
63.200378
  0
SEQEND
  0
POLYLINE
  5
26a
  8
Layer_1
  62
5
  66
1
  10
0
  20
0
  30
0
  0
VERTEX
  5
26a
  8
Layer_1
  10
77.054504
  20
63.192566
  42
0.32059337
  0
VERTEX
  5
26b
  8
Layer_1
  10
77.978821
  20
64.016296
  0
VERTEX
  5
26c
  8
Layer_1
  10
77.524719
  20
64.072449
  0
VERTEX
  5
26d
  8
Layer_1
  10
77.47052
  20
63.942566
  42
-0.19873173
  0
VERTEX
  5
26e
  8
Layer_1
  10
77.07856
  20
63.577499
  42
-0.19873234
  0
VERTEX
  5
26f
  8
Layer_1
  10
76.543274
  20
63.596863
  42
-0.25597227
  0
VERTEX
  5
270
  8
Layer_1
  10
76.081848
  20
64.220398
  0
VERTEX
  5
271
  8
Layer_1
  10
76.057434
  20
64.42157
  0
VERTEX
  5
272
  8
Layer_1
  10
77.991028
  20
64.42157
  42
0.13971092
  0
VERTEX
  5
273
  8
Layer_1
  10
77.808411
  20
65.340027
  42
0.27553766
  0
VERTEX
  5
274
  8
Layer_1
  10
76.81427
  20
65.888855
  42
0.39797936
  0
VERTEX
  5
275
  8
Layer_1
  10
75.624817
  20
64.820496
  42
0.16518375
  0
VERTEX
  5
276
  8
Layer_1
  10
75.790833
  20
63.721863
  42
0.27341345
  0
VERTEX
  5
277
  8
Layer_1
  10
76.838684
  20
63.178894
  0
VERTEX
  5
278
  8
Layer_1
  10
77.054504
  20
63.192566
  0
SEQEND
  0
POLYLINE
  5
27a
  8
Layer_1
  62
5
  66
1
  10
0
  20
0
  30
0
  0
VERTEX
  5
27a
  8
Layer_1
  10
76.081848
  20
64.782898
  0
VERTEX
  5
27b
  8
Layer_1
  10
76.104309
  20
64.944031
  42
-0.36521432
  0
VERTEX
  5
27c
  8
Layer_1
  10
76.819153
  20
65.527527
  42
-0.38084566
  0
VERTEX
  5
27d
  8
Layer_1
  10
77.508606
  20
64.936218
  0
VERTEX
  5
27e
  8
Layer_1
  10
77.529602
  20
64.782898
  0
VERTEX
  5
27f
  8
Layer_1
  10
76.081848
  20
64.782898
  0
SEQEND
  0
POLYLINE
  5
281
  8
Layer_1
  62
5
  70
1
  66
1
  10
0
  20
0
  30
0
  0
VERTEX
  5
281
  8
Layer_1
  10
72.27179
  20
63.530457
  42
-0.35375501
  0
VERTEX
  5
282
  8
Layer_1
  10
71.881844
  20
63.839672
  42
-0.35375479
  0
VERTEX
  5
283
  8
Layer_1
  10
72.104309
  20
64.284851
  42
-0.040736778
  0
VERTEX
  5
284
  8
Layer_1
  10
72.906067
  20
64.448425
  0
VERTEX
  5
285
  8
Layer_1
  10
73.070618
  20
64.491882
  0
VERTEX
  5
286
  8
Layer_1
  10
73.205383
  20
64.538757
  42
-0.16279447
  0
VERTEX
  5
287
  8
Layer_1
  10
73.08136
  20
63.846863
  42
-0.27588045
  0
SEQEND
  0
POLYLINE
  5
289
  8
Layer_1
  62
5
  66
1
  10
0
  20
0
  30
0
  0
VERTEX
  5
289
  8
Layer_1
  10
122.82861
  20
64.68634
  0
VERTEX
  5
28a
  8
Layer_1
  10
123.59521
  20
64.68634
  0
VERTEX
  5
28b
  8
Layer_1
  10
123.38525
  20
63.646301
  0
VERTEX
  5
28c
  8
Layer_1
  10
123.75146
  20
63.646301
  0
VERTEX
  5
28d
  8
Layer_1
  10
123.96387
  20
64.68634
  0
VERTEX
  5
28e
  8
Layer_1
  10
124.71582
  20
64.68634
  0
VERTEX
  5
28f
  8
Layer_1
  10
124.71582
  20
65.05011
  0
VERTEX
  5
290
  8
Layer_1
  10
124.03711
  20
65.05011
  0
VERTEX
  5
291
  8
Layer_1
  10
124.22021
  20
65.93634
  0
VERTEX
  5
292
  8
Layer_1
  10
124.71582
  20
65.93634
  0
VERTEX
  5
293
  8
Layer_1
  10
124.71582
  20
66.30011
  0
VERTEX
  5
294
  8
Layer_1
  10
124.29346
  20
66.30011
  0
VERTEX
  5
295
  8
Layer_1
  10
124.50586
  20
67.347473
  0
VERTEX
  5
296
  8
Layer_1
  10
124.13721
  20
67.347473
  0
VERTEX
  5
297
  8
Layer_1
  10
123.9248
  20
66.30011
  0
VERTEX
  5
298
  8
Layer_1
  10
123.15576
  20
66.30011
  0
VERTEX
  5
299
  8
Layer_1
  10
123.36816
  20
67.347473
  0
VERTEX
  5
29a
  8
Layer_1
  10
123.00195
  20
67.347473
  0
VERTEX
  5
29b
  8
Layer_1
  10
122.78955
  20
66.30011
  0
VERTEX
  5
29c
  8
Layer_1
  10
122.0498
  20
66.30011
  0
VERTEX
  5
29d
  8
Layer_1
  10
122.0498
  20
65.93634
  0
VERTEX
  5
29e
  8
Layer_1
  10
122.71631
  20
65.93634
  0
VERTEX
  5
29f
  8
Layer_1
  10
122.53564
  20
65.05011
  0
VERTEX
  5
2a0
  8
Layer_1
  10
122.0498
  20
65.05011
  0
VERTEX
  5
2a1
  8
Layer_1
  10
122.0498
  20
64.68634
  0
VERTEX
  5
2a2
  8
Layer_1
  10
122.4624
  20
64.68634
  0
VERTEX
  5
2a3
  8
Layer_1
  10
122.25
  20
63.646301
  0
VERTEX
  5
2a4
  8
Layer_1
  10
122.61621
  20
63.646301
  0
VERTEX
  5
2a5
  8
Layer_1
  10
122.82861
  20
64.68634
  0
SEQEND
  0
POLYLINE
  5
2a7
  8
Layer_1
  62
5
  66
1
  10
0
  20
0
  30
0
  0
VERTEX
  5
2a7
  8
Layer_1
  10
109.75781
  20
65.162415
  0
VERTEX
  5
2a8
  8
Layer_1
  10
110.67578
  20
65.162415
  42
0.16762522
  0
VERTEX
  5
2a9
  8
Layer_1
  10
111.646
  20
65.404602
  42
0.36007505
  0
VERTEX
  5
2aa
  8
Layer_1
  10
111.84912
  20
66.844543
  42
0.25078417
  0
VERTEX
  5
2ab
  8
Layer_1
  10
110.94873
  20
67.278137
  42
0.01366681
  0
VERTEX
  5
2ac
  8
Layer_1
  10
109.28418
  20
67.286438
  0
VERTEX
  5
2ad
  8
Layer_1
  10
109.28418
  20
63.707336
  0
VERTEX
  5
2ae
  8
Layer_1
  10
109.75781
  20
63.707336
  0
VERTEX
  5
2af
  8
Layer_1
  10
109.75781
  20
65.162415
  0
SEQEND
  0
POLYLINE
  5
2b1
  8
Layer_1
  62
5
  66
1
  10
0
  20
0
  30
0
  0
VERTEX
  5
2b1
  8
Layer_1
  10
109.75781
  20
65.584778
  0
VERTEX
  5
2b2
  8
Layer_1
  10
109.75781
  20
66.864075
  42
-0.021668026
  0
VERTEX
  5
2b3
  8
Layer_1
  10
110.94531
  20
66.856262
  42
-0.38863795
  0
VERTEX
  5
2b4
  8
Layer_1
  10
111.521
  20
66.345032
  42
-0.196713
  0
VERTEX
  5
2b5
  8
Layer_1
  10
111.44649
  20
65.894234
  42
-0.1967131
  0
VERTEX
  5
2b6
  8
Layer_1
  10
111.07568
  20
65.627258
  42
-0.062285682
  0
VERTEX
  5
2b7
  8
Layer_1
  10
110.68311
  20
65.584778
  0
VERTEX
  5
2b8
  8
Layer_1
  10
109.75781
  20
65.584778
  0
SEQEND
  0
POLYLINE
  5
2ba
  8
Layer_1
  62
5
  66
1
  10
0
  20
0
  30
0
  0
VERTEX
  5
2ba
  8
Layer_1
  10
113.56592
  20
63.670227
  42
0.13656447
  0
VERTEX
  5
2bb
  8
Layer_1
  10
114.27002
  20
64.027161
  0
VERTEX
  5
2bc
  8
Layer_1
  10
114.30176
  20
63.855774
  0
VERTEX
  5
2bd
  8
Layer_1
  10
114.35791
  20
63.707336
  0
VERTEX
  5
2be
  8
Layer_1
  10
114.81689
  20
63.707336
  0
VERTEX
  5
2bf
  8
Layer_1
  10
114.74756
  20
63.85968
  42
-0.068206062
  0
VERTEX
  5
2c0
  8
Layer_1
  10
114.67773
  20
64.793762
  0
VERTEX
  5
2c1
  8
Layer_1
  10
114.67773
  20
65.3797
  42
0.17364271
  0
VERTEX
  5
2c2
  8
Layer_1
  10
114.51904
  20
66.083801
  42
0.20549457
  0
VERTEX
  5
2c3
  8
Layer_1
  10
113.67432
  20
66.358704
  42
0.18446545
  0
VERTEX
  5
2c4
  8
Layer_1
  10
112.77246
  20
66.085754
  42
0.15365216
  0
VERTEX
  5
2c5
  8
Layer_1
  10
112.50488
  20
65.560364
  0
VERTEX
  5
2c6
  8
Layer_1
  10
112.93457
  20
65.50177
  0
VERTEX
  5
2c7
  8
Layer_1
  10
112.9751
  20
65.629211
  42
-0.33109187
  0
VERTEX
  5
2c8
  8
Layer_1
  10
113.46582
  20
65.988098
  42
-0.20869837
  0
VERTEX
  5
2c9
  8
Layer_1
  10
114.11133
  20
65.846008
  42
-0.21262084
  0
VERTEX
  5
2ca
  8
Layer_1
  10
114.2334
  20
65.352844
  42
-0.036141527
  0
VERTEX
  5
2cb
  8
Layer_1
  10
113.13232
  20
65.152649
  0
VERTEX
  5
2cc
  8
Layer_1
  10
113.05908
  20
65.135559
  42
0.19875536
  0
VERTEX
  5
2cd
  8
Layer_1
  10
112.5641
  20
64.813698
  42
0.19875602
  0
VERTEX
  5
2ce
  8
Layer_1
  10
112.44385
  20
64.235657
  42
0.33540447
  0
VERTEX
  5
2cf
  8
Layer_1
  10
113.11426
  20
63.661926
  42
0.075643675
  0
VERTEX
  5
2d0
  8
Layer_1
  10
113.56592
  20
63.670227
  0
SEQEND
  0
POLYLINE
  5
2d2
  8
Layer_1
  62
5
  66
1
  10
0
  20
0
  30
0
  0
VERTEX
  5
2d2
  8
Layer_1
  10
116.51074
  20
62.664368
  42
0.38269485
  0
VERTEX
  5
2d3
  8
Layer_1
  10
117.46387
  20
63.541809
  42
0.035530423
  0
VERTEX
  5
2d4
  8
Layer_1
  10
117.49512
  20
64.058899
  0
VERTEX
  5
2d5
  8
Layer_1
  10
117.49512
  20
66.30011
  0
VERTEX
  5
2d6
  8
Layer_1
  10
117.08984
  20
66.30011
  0
VERTEX
  5
2d7
  8
Layer_1
  10
117.08984
  20
65.98761
  0
VERTEX
  5
2d8
  8
Layer_1
  10
116.93066
  20
66.150208
  42
0.40460094
  0
VERTEX
  5
2d9
  8
Layer_1
  10
115.5083
  20
65.981262
  42
0.31628075
  0
VERTEX
  5
2da
  8
Layer_1
  10
115.50293
  20
64.093079
  42
0.34198251
  0
VERTEX
  5
2db
  8
Layer_1
  10
116.72461
  20
63.792297
  42
0.10687409
  0
VERTEX
  5
2dc
  8
Layer_1
  10
117.04834
  20
64.046692
  42
-0.10719616
  0
VERTEX
  5
2dd
  8
Layer_1
  10
116.98047
  20
63.378723
  42
-0.32210729
  0
VERTEX
  5
2de
  8
Layer_1
  10
116.3208
  20
63.01886
  42
-0.27976664
  0
VERTEX
  5
2df
  8
Layer_1
  10
115.77539
  20
63.258118
  42
-0.087658879
  0
VERTEX
  5
2e0
  8
Layer_1
  10
115.7251
  20
63.429016
  0
VERTEX
  5
2e1
  8
Layer_1
  10
115.29785
  20
63.492493
  42
0.32786624
  0
VERTEX
  5
2e2
  8
Layer_1
  10
115.72754
  20
62.772278
  42
0.13159405
  0
VERTEX
  5
2e3
  8
Layer_1
  10
116.51074
  20
62.664368
  0
SEQEND
  0
POLYLINE
  5
2e5
  8
Layer_1
  62
5
  66
1
  10
0
  20
0
  30
0
  0
VERTEX
  5
2e5
  8
Layer_1
  10
119.43262
  20
63.662415
  42
0.320579
  0
VERTEX
  5
2e6
  8
Layer_1
  10
120.35742
  20
64.486145
  0
VERTEX
  5
2e7
  8
Layer_1
  10
119.90332
  20
64.542297
  0
VERTEX
  5
2e8
  8
Layer_1
  10
119.84863
  20
64.412415
  42
-0.1988836
  0
VERTEX
  5
2e9
  8
Layer_1
  10
119.45695
  20
64.047348
  42
-0.19888356
  0
VERTEX
  5
2ea
  8
Layer_1
  10
118.92188
  20
64.066711
  42
-0.25628351
  0
VERTEX
  5
2eb
  8
Layer_1
  10
118.45996
  20
64.690247
  0
VERTEX
  5
2ec
  8
Layer_1
  10
118.43604
  20
64.891418
  0
VERTEX
  5
2ed
  8
Layer_1
  10
120.36963
  20
64.891418
  42
0.13920485
  0
VERTEX
  5
2ee
  8
Layer_1
  10
120.18652
  20
65.809875
  42
0.27551619
  0
VERTEX
  5
2ef
  8
Layer_1
  10
119.19287
  20
66.358704
  42
0.39779726
  0
VERTEX
  5
2f0
  8
Layer_1
  10
118.00293
  20
65.290344
  42
0.16553853
  0
VERTEX
  5
2f1
  8
Layer_1
  10
118.16943
  20
64.191711
  42
0.27374098
  0
VERTEX
  5
2f2
  8
Layer_1
  10
119.21729
  20
63.648743
  0
VERTEX
  5
2f3
  8
Layer_1
  10
119.43262
  20
63.662415
  0
SEQEND
  0
POLYLINE
  5
2f5
  8
Layer_1
  62
5
  66
1
  10
0
  20
0
  30
0
  0
VERTEX
  5
2f5
  8
Layer_1
  10
118.46045
  20
65.252747
  0
VERTEX
  5
2f6
  8
Layer_1
  10
118.48291
  20
65.413879
  42
-0.36551263
  0
VERTEX
  5
2f7
  8
Layer_1
  10
119.19775
  20
65.997375
  42
-0.38140094
  0
VERTEX
  5
2f8
  8
Layer_1
  10
119.88672
  20
65.406067
  0
VERTEX
  5
2f9
  8
Layer_1
  10
119.9082
  20
65.252747
  0
VERTEX
  5
2fa
  8
Layer_1
  10
118.46045
  20
65.252747
  0
SEQEND
  0
POLYLINE
  5
2fc
  8
Layer_1
  62
5
  66
1
  10
0
  20
0
  30
0
  0
VERTEX
  5
2fc
  8
Layer_1
  10
116.22559
  20
64.085754
  42
-0.28779309
  0
VERTEX
  5
2fd
  8
Layer_1
  10
115.71191
  20
64.608704
  42
-0.16949723
  0
VERTEX
  5
2fe
  8
Layer_1
  10
115.77686
  20
65.623352
  42
-0.34711643
  0
VERTEX
  5
2ff
  8
Layer_1
  10
116.5083
  20
65.979797
  42
-0.3270065
  0
VERTEX
  5
300
  8
Layer_1
  10
117.07178
  20
65.258606
  42
-0.13808627
  0
VERTEX
  5
301
  8
Layer_1
  10
116.96924
  20
64.437317
  42
-0.34454886
  0
VERTEX
  5
302
  8
Layer_1
  10
116.22559
  20
64.085754
  0
SEQEND
  0
POLYLINE
  5
304
  8
Layer_1
  62
5
  66
1
  10
0
  20
0
  30
0
  0
VERTEX
  5
304
  8
Layer_1
  10
122.90186
  20
65.05011
  0
VERTEX
  5
305
  8
Layer_1
  10
123.08252
  20
65.93634
  0
VERTEX
  5
306
  8
Layer_1
  10
123.85156
  20
65.93634
  0
VERTEX
  5
307
  8
Layer_1
  10
123.66846
  20
65.05011
  0
VERTEX
  5
308
  8
Layer_1
  10
122.90186
  20
65.05011
  0
SEQEND
  0
POLYLINE
  5
30a
  8
Layer_1
  62
5
  70
1
  66
1
  10
0
  20
0
  30
0
  0
VERTEX
  5
30a
  8
Layer_1
  10
113.2998
  20
64.000305
  42
-0.37880494
  0
VERTEX
  5
30b
  8
Layer_1
  10
112.90376
  20
64.344597
  42
-0.37880329
  0
VERTEX
  5
30c
  8
Layer_1
  10
113.19873
  20
64.778625
  42
-0.022621177
  0
VERTEX
  5
30d
  8
Layer_1
  10
113.93457
  20
64.918274
  0
VERTEX
  5
30e
  8
Layer_1
  10
114.09912
  20
64.961731
  0
VERTEX
  5
30f
  8
Layer_1
  10
114.2334
  20
65.008606
  42
-0.16208525
  0
VERTEX
  5
310
  8
Layer_1
  10
114.10986
  20
64.316711
  42
-0.27572624
  0
SEQEND
  0
ENDSEC
  0
EOF
